<svg width="196" height="196" viewBox="0 0 196 196" fill="none" xmlns="http://www.w3.org/2000/svg">
<path d="M194.267 99.9157C194.13 97.6611 193.975 95.4075 193.802 93.1552C193.453 88.6195 193.05 84.0837 192.724 79.548C192.439 75.5786 192.154 71.6279 190.537 67.9039C189.314 65.086 188.16 62.2378 187.021 59.3849C182.775 48.7457 175.905 39.8068 168.58 31.1994C166.222 28.4291 163.372 26.0822 160.758 23.5236C153.199 16.1385 144.034 11.312 134.37 7.45544C127.872 4.86542 121.101 2.9732 114.101 2.1463C108.179 1.4485 102.264 0.634392 96.3219 0.169188C94.9263 0.0598657 93.5307 0.000552296 92.1351 0.000552296C89.272 -0.0141744 86.4149 0.265645 83.6091 0.835592C80.9795 1.38337 78.4035 2.17654 75.8018 2.85457C67.1269 5.11314 58.9382 8.58704 51.0297 12.7588C44.2482 16.3443 38.0552 20.7323 32.5833 26.1717C28.0336 30.6912 23.7525 35.4293 19.6599 40.3709C14.6287 46.4395 10.7908 53.164 7.33203 60.1967C2.27876 70.4661 0.480751 81.3972 0.0655575 92.6702C-0.123683 97.3349 0.0969729 102.007 0.724983 106.633C1.08086 109.199 0.909901 111.839 1.29602 114.398C1.96475 118.838 2.74048 123.272 3.72205 127.656C6.42605 139.728 11.8829 150.473 19.8553 159.91C26.9915 168.356 35.4001 175.335 44.8867 181.009C49.5888 183.822 54.2524 186.76 59.5511 188.343C65.3173 190.068 71.1161 191.699 76.9474 193.19C82.3589 194.574 87.7843 196 93.4191 196C94.1804 196 94.9461 195.972 95.716 195.917C99.4748 195.706 103.245 195.608 106.991 195.252C111.358 194.838 115.788 194.554 120.041 193.58C129.137 191.486 138.006 188.703 146.221 184.03C152.77 180.309 158.851 176.073 164.339 171.19C164.585 171.05 164.795 170.854 164.951 170.617C169.96 166.075 174.476 160.988 178.348 155.178C181.882 149.876 185.875 144.802 188.027 138.727C189.573 134.365 190.622 129.829 191.936 125.384C194.402 117.045 194.793 108.523 194.267 99.9157ZM189.499 78.1105C189.499 78.6187 189.093 78.8758 188.597 78.8793C188.102 78.8827 187.783 78.6059 187.667 78.1082C187.783 77.6081 188.1 77.3418 188.597 77.3441C189.095 77.3464 189.496 77.6023 189.496 78.1105H189.499ZM181.706 70.216C181.87 69.859 182.032 69.5101 182.347 69.2728C182.929 68.8355 183.053 68.2587 183.001 67.5678C182.963 67.0701 182.815 66.5211 183.202 66.0827C183.622 65.6012 184.317 65.1918 184.433 64.6522C184.597 63.8939 183.618 63.6136 183.217 63.0496C183.001 62.7414 182.972 62.4797 183.228 62.1959C183.703 61.6679 184.181 61.2085 184.871 61.0759C185.884 63.6078 186.964 66.2746 188.127 68.9495C188.538 69.9134 188.866 70.9106 189.108 71.9303C188.8 71.9387 188.502 72.033 188.245 72.2024C187.459 72.7374 186.555 72.7211 185.65 72.6909C184.631 72.6572 183.673 72.2757 182.638 72.2373C181.667 72.2013 181.277 71.1418 181.703 70.216H181.706ZM166.855 41.3246C168.11 41.2478 168.792 40.3558 168.541 39.1532C168.224 37.632 168.395 36.9493 169.482 36.3829C170.384 37.48 171.275 38.595 172.157 39.7278C172.107 39.9731 172.041 40.2197 171.983 40.457C171.827 41.128 171.517 41.7688 171.214 42.3969C171.041 42.7597 170.835 43.1237 171.12 43.4564C171.424 43.8111 171.817 43.6331 172.166 43.4343C172.843 43.0423 173.539 42.7911 174.352 42.8597C174.437 42.8679 174.487 42.8876 174.561 42.8969C174.919 43.3854 175.267 43.8832 175.618 44.3775C175.527 45.5265 174.739 46.3685 173.37 46.7477C172.179 47.078 171.991 47.5815 172.504 48.6678C172.791 49.276 173.37 49.5982 173.688 50.1704C174.236 51.1601 173.746 52.1475 172.613 52.1475C171.416 52.1475 170.436 51.4846 169.526 50.8217C168.904 50.3681 168.67 49.6156 168.635 48.7911C168.596 47.8781 168.287 47.1094 167.322 46.6476C166.575 46.2883 166.056 45.5847 165.731 44.7787C165.566 44.3639 165.372 43.9613 165.15 43.5738C164.531 42.5073 164.289 42.455 163.233 43.1028C163.068 43.2084 162.884 43.2799 162.69 43.3131C162.497 43.3463 162.299 43.3404 162.109 43.2959C161.848 42.9923 161.59 42.6795 161.329 42.3864C161.225 41.87 161.09 41.3699 160.961 40.8628C160.832 40.3558 160.867 39.794 161.436 39.5254C161.917 39.2986 162.465 39.2591 162.883 39.6347C163.409 40.1057 163.968 40.5919 164.317 41.1862C164.617 41.6979 164.938 41.8619 165.377 41.6083C165.85 41.3257 166.345 41.356 166.855 41.3246ZM153.633 32.7183C154.656 32.4857 154.943 31.6821 154.529 30.5702C154.246 29.8085 154.469 29.3979 154.931 28.8746C155.453 28.2814 156.054 28.0977 156.81 28.1337C157.751 28.1779 157.81 28.1744 157.808 29.0944C157.808 30.3144 157.776 31.4867 158.488 32.6101C159.387 34.0313 159.761 34.2465 161.445 33.6964C161.805 33.5801 162.164 33.4545 162.528 33.3475C163.325 33.1149 164.011 33.3626 164.431 34.1034C164.896 34.9373 165.326 35.7991 165.741 36.6621C165.992 37.1831 165.741 37.7169 165.203 37.8041C164.757 37.8774 164.345 37.7367 163.904 37.6099C162.419 37.1831 161.113 37.8309 160.549 39.2521C160.336 39.7952 159.955 39.9115 159.455 39.601C159.106 39.3788 158.815 39.2218 158.558 39.0928C158.595 38.9247 158.602 38.7514 158.578 38.581C158.428 37.5622 157.908 36.8016 156.88 36.5144C156.353 36.3667 155.816 36.2608 155.278 36.1538C154.856 35.7607 154.433 35.3688 153.999 34.9792L153.388 34.3093C152.949 33.4696 152.395 32.9997 153.638 32.7206L153.633 32.7183ZM151.112 27.7604C151.832 27.7395 152.392 28.1 152.345 28.5954C152.304 29.0676 151.742 29.6735 151.305 29.7154C150.641 29.7794 150.463 29.5991 150.444 28.8408C150.465 28.3593 150.325 27.786 151.112 27.7627V27.7604ZM146.749 25.5402C146.865 25.2436 147.165 25.0634 147.556 25.0576C147.678 25.0529 147.799 25.0751 147.911 25.1225C148.024 25.17 148.124 25.2415 148.206 25.332C149.348 26.495 149.476 28.6699 148.47 29.8515C148.371 29.9678 148.176 30.0317 147.968 30.0701C147.585 29.7829 147.219 29.4956 146.826 29.2095C146.601 28.4791 146.538 27.7034 146.413 26.9533C146.339 26.5125 146.572 25.9949 146.749 25.5425V25.5402ZM142.897 15.9186C143.166 15.6093 143.618 15.7035 143.903 16.0187C144.068 16.2112 144.277 16.3613 144.513 16.4564C144.748 16.5515 145.003 16.5888 145.255 16.5653C145.497 16.5525 145.781 16.5967 145.764 16.963C145.751 17.2503 145.547 17.4143 145.342 17.5445C144.939 17.812 144.475 17.6457 144.139 17.6853C143.79 17.6853 143.532 17.6853 143.277 17.6853C143.084 17.6973 142.892 17.6435 142.733 17.5326C142.575 17.4217 142.458 17.2603 142.403 17.0747C142.272 16.6281 142.632 16.228 142.897 15.921V15.9186ZM134.224 17.0537C134.353 16.4385 134.508 15.8175 134.69 15.2185C134.871 14.6196 135.171 13.959 135.77 13.6752C136.439 13.3589 136.892 12.8332 137.419 12.3703C137.645 12.1736 137.911 12.028 138.198 11.9435C139.053 12.3273 139.895 12.7134 140.712 13.1065C140.678 13.2228 140.595 13.3391 140.385 13.4635C139.331 14.1067 138.533 15.0499 137.748 15.9861C137.003 16.8758 137.474 17.8155 137.804 18.682C138.1 19.4519 138.874 19.2309 139.497 19.2565C140.273 19.2879 141.009 19.2111 141.729 18.8262C142.5 18.4145 143.31 18.718 143.823 19.4705C144.381 20.2846 144.347 20.887 143.446 21.5639C142.568 22.2233 142.313 23.0467 142.331 24.0585C142.34 24.5703 142.407 25.125 142.244 25.5879C142.204 25.7042 142.164 25.8286 142.117 25.9519C140.64 24.975 139.119 23.9946 137.503 23.0049C137.469 22.9839 137.432 22.9665 137.398 22.9467C137.425 22.8758 137.449 22.8083 137.481 22.7327C137.604 22.4443 137.644 22.1221 137.735 21.8209C138.002 20.9347 137.759 20.3253 136.971 20.0694C136.613 19.9531 136.197 20.0089 135.847 19.8822C134.431 19.3728 133.916 18.5156 134.224 17.0561V17.0537ZM130.931 12.6669C131.031 12.7436 131.163 12.7832 131.265 12.8506C132.932 13.9159 132.946 13.9276 131.663 15.5628C131.42 15.871 131.474 16.0419 131.604 16.3687C132.044 17.4701 131.903 17.648 130.743 17.698C130.616 17.698 130.486 17.698 130.359 17.698C129.777 17.698 129.228 17.6841 128.693 17.3596C128.344 17.1468 127.737 17.4899 127.482 17.0037C127.199 16.4618 127.61 15.9245 127.888 15.6081C128.609 14.7812 129.126 13.8462 129.678 12.9204C129.985 12.4064 130.412 12.2715 130.931 12.6692V12.6669ZM121.25 6.07146C124.003 6.71179 126.72 7.49636 129.391 8.4219C129.498 8.5382 129.604 8.6545 129.71 8.7708C129.892 8.97083 129.958 9.2139 129.911 9.60816C129.68 10.2013 129.448 10.9363 129.099 11.6039C128.842 12.097 127.771 12.0691 127.456 11.4876C126.666 10.0338 125.205 9.69306 123.863 9.2046C123.058 8.91152 122.413 8.41492 121.73 7.96716C121.325 7.70199 121.094 7.18562 121.032 6.67157C121.023 6.56209 121.037 6.45184 121.075 6.34856C121.112 6.24529 121.172 6.15149 121.25 6.07378V6.07146ZM119.075 13.8334C119.576 13.5492 120.149 13.4156 120.724 13.4484C121.238 13.4624 121.609 13.6717 121.771 14.1334C121.937 14.6161 121.639 14.9568 121.322 15.3139C120.81 15.8872 120.159 15.7395 119.51 15.7849C119.13 15.6965 118.595 15.9884 118.363 15.4081C118.132 14.8277 118.43 14.2148 119.075 13.8357V13.8334ZM110.352 8.04857C111.027 7.40426 111.539 7.53336 111.933 8.37537C112.107 8.74638 112.118 9.10109 112.106 9.52792C112.064 9.91985 111.7 10.2583 111.742 10.7374C111.777 11.1364 111.683 11.4934 111.154 11.5155C110.689 11.5353 110.258 11.4911 109.98 11.0619C109.53 10.3711 109.752 8.61961 110.35 8.0509L110.352 8.04857ZM100.256 3.19999C101.253 3.30117 102.243 3.38491 103.238 3.49772C103.604 3.85592 103.923 4.31182 104.262 4.72237C104.648 5.18757 104.262 5.66091 103.876 6.04354C103.521 6.39245 103.229 6.49712 102.713 6.23893C101.823 5.79117 101.155 5.11546 100.629 4.33625C100.435 4.05131 99.9493 3.65472 100.256 3.19999ZM92.9469 6.83671C93.2179 6.11449 93.697 6.111 94.2913 6.06099C95.2589 5.97958 96.1126 6.18892 96.608 7.05071C97.0383 7.79852 97.771 8.17883 98.3444 8.74521C98.7177 9.11389 99.0748 9.46977 98.9829 10.0175C99.0166 10.9863 98.8573 11.1294 97.9362 11.6458C97.2384 12.0354 96.7592 11.8667 96.2545 11.348C95.2752 10.3397 94.2774 9.35114 93.2725 8.3684C92.8131 7.9125 92.6968 7.49381 92.9469 6.83671ZM89.2578 11.1899C89.9556 9.871 90.8616 9.38021 92.1839 9.56978C92.7736 9.65585 93.1213 9.96753 93.1504 10.5607C93.1795 11.1538 93.1574 11.7144 93.1574 12.2901C93.1574 12.4831 93.1574 12.675 93.1574 12.8716C93.1458 13.3728 93.1399 13.6764 93.0643 13.8508C92.7747 13.8752 92.4828 13.8962 92.2037 13.9334L92.0304 13.9567L91.7083 13.8985C91.0105 13.7717 90.3231 13.6659 89.7312 13.2868C88.8112 12.6901 88.724 12.1912 89.2578 11.1899ZM76.959 5.59695C76.9977 5.47222 77.0492 5.3518 77.1125 5.23758C77.7464 5.06778 78.379 4.89798 79.0106 4.72353C79.8247 4.50023 80.6143 4.28391 81.3994 4.07922C82.0972 4.48511 82.7578 4.85727 82.7182 5.88537C82.6891 6.61109 83.2044 6.85765 83.8812 6.86346C84.4034 6.86346 84.9058 6.8844 85.2908 6.42734C85.5083 6.17147 85.7839 6.02959 86.1328 6.25056C86.8969 6.73204 87.5726 8.24395 87.3168 8.92548C87.0842 9.54536 85.7072 10.1071 84.7884 9.9466C84.6014 9.91284 84.4206 9.85088 84.2522 9.76284C83.5777 9.40813 82.7857 9.21739 82.3077 8.57076C81.8297 7.92413 81.5459 8.24279 81.1086 8.63589C80.2236 9.43022 80.0875 9.3837 79.1978 8.58006C78.6791 8.11486 78.3011 7.49033 77.5952 7.22167C76.8206 6.92394 76.788 6.25056 76.959 5.59695ZM79.9956 13.9997C80.0022 14.2541 79.9082 14.5008 79.734 14.6863C79.5598 14.8718 79.3195 14.9812 79.0652 14.9906C78.4186 15.0068 78.0185 14.4742 78.0487 13.6775C78.0685 13.1681 78.3697 13.0437 78.7093 13.06C79.5304 13.0809 79.9724 13.4263 79.9956 13.9997ZM71.2277 11.2759C71.2727 11.2372 71.326 11.2093 71.3835 11.1946C71.441 11.1799 71.5011 11.1787 71.5592 11.191C71.6592 11.2131 71.8057 11.3259 71.8139 11.4108C71.8581 11.8516 71.865 12.2947 71.8848 12.7378C71.883 13.1176 71.8601 13.4969 71.8162 13.8741C71.7685 14.1706 71.494 14.2521 71.2347 14.2125C71.0649 14.1858 70.7892 14.0857 70.7695 13.9799C70.5811 13.0297 70.6346 12.0993 71.2277 11.2759ZM56.9588 22.3478C57.4775 22.3478 57.9543 22.8211 57.9368 23.327C57.9265 23.4647 57.8963 23.6003 57.8473 23.7294C57.4449 23.9422 57.0588 24.1632 56.6657 24.3795C56.3424 24.0888 56.0097 23.6131 55.9935 23.3328C55.9644 22.8316 56.4307 22.3524 56.9588 22.3478ZM54.1419 15.379C54.6072 15.379 54.8514 15.5628 54.8398 16.0443C54.8398 16.5095 54.8398 16.9747 54.1652 16.9363C53.6081 17.0061 53.1487 16.8293 52.9534 16.2722C52.8056 15.8303 53.4325 15.386 54.1419 15.379ZM50.5959 22.735C50.782 22.0303 51.6426 21.4464 52.3765 21.6034C53.006 21.7277 53.5824 22.0419 54.028 22.5036C54.5292 23.0293 54.5339 23.2607 54.0047 23.7829C53.7279 24.0574 53.4604 24.3412 53.0022 24.283C52.537 24.3923 52.1625 24.083 51.7462 23.9399C50.7657 23.6026 50.4482 23.2758 50.5959 22.735ZM47.5128 19.1297C47.5814 18.5691 48.2106 18.0737 48.8328 18.083C49.6958 18.0946 50.1854 18.4505 50.1796 19.0588C50.1796 19.5821 49.3957 20.2869 48.7374 20.3625C48.2804 20.4183 47.4558 19.5856 47.5082 19.1344L47.5128 19.1297ZM44.796 20.9498C45.3438 20.3241 45.8113 20.2381 46.18 20.9114C46.7247 21.9051 47.3751 22.837 48.1199 23.691C48.4479 24.0678 48.2432 24.5761 47.828 24.8657C46.9871 25.4472 46.1521 25.6135 45.1403 25.0983C44.2959 24.6703 43.7109 24.2621 43.9854 23.3421C43.89 22.3408 44.2227 21.6023 44.796 20.9498ZM35.7815 26.2043C35.9223 25.6879 38.9391 23.8783 41.2198 22.1338C41.6245 22.4361 41.5315 22.806 40.9872 23.3212C40.7918 23.5038 40.9732 23.7992 41.1698 23.9899C41.444 24.2562 41.7448 24.4935 42.0676 24.6982C43.0503 25.3192 43.8796 26.1194 44.432 27.1649C44.8972 28.0546 44.6727 28.8234 43.8261 29.2223C43.3085 29.4665 43.2632 30.0643 43.7272 30.426C43.8784 30.5423 43.997 30.7063 44.1482 30.8261C44.8042 31.3436 45.2856 31.7635 45.6601 32.0949C45.2135 32.4636 44.7635 32.8323 44.3215 33.1986C43.7361 33.6848 43.15 34.1678 42.563 34.6477C42.1322 34.7964 41.691 34.913 41.243 34.9966C40.7069 35.0897 40.5592 34.9571 40.4231 34.5442C40.3242 34.2442 40.1824 33.9557 40.1056 33.651C39.9556 33.0591 39.5799 32.7997 38.9891 32.8067C38.7309 32.8067 38.4704 32.8265 38.2146 32.8067C37.233 32.7218 36.6584 32.2031 36.6561 31.2436C36.6561 30.4295 36.4642 29.5875 36.8887 28.7804C37.1748 28.2407 37.0143 27.6895 36.684 27.1521C36.3037 26.5102 35.6513 26.6811 35.7815 26.2043ZM43.69 37.1284C47.393 34.1139 51.0018 30.9087 55.027 28.3838C56.0411 27.7476 57.0774 27.1568 58.1241 26.5846C58.3034 26.5625 58.4753 26.4997 58.6265 26.4008C58.9905 26.1566 59.3639 25.9356 59.7418 25.7205C60.8327 25.1622 61.9422 24.6424 63.0599 24.1423C63.346 24.026 63.6321 23.9097 63.9205 23.7934C64.0202 23.746 64.1166 23.692 64.2089 23.6317C67.419 22.2754 70.6968 21.0856 74.0294 20.0671C80.077 18.19 86.3201 17.3817 92.5491 16.5432C93.3868 16.4359 94.2307 16.3846 95.0752 16.3897C96.7301 16.3897 98.406 16.5455 100.06 16.6351C103.2 16.8049 106.333 17.1887 109.48 17.3329C119.025 17.776 127.939 20.2404 136.127 25.2564C143.667 29.8713 150.807 34.999 156.901 41.4467C159.925 44.6461 162.815 47.9677 165.086 51.7858C166.664 54.4386 168.359 57.0287 169.98 59.6559C169.635 59.7018 169.297 59.7865 168.972 59.9083C168.603 60.0444 168.247 60.2142 167.91 60.4153L166.96 60.9968C164.727 62.3657 162.417 63.7822 160.185 65.2441C159.274 65.8373 158.454 66.071 157.51 65.9954C156.792 65.9566 156.073 66.0165 155.371 66.1734C152.71 66.7002 150.669 68.3366 148.641 70.1125C146.473 72.0059 144.338 74.0028 142.272 75.9357L141.898 76.2846C141.491 76.6645 141.082 77.0425 140.672 77.4185C139.338 78.6408 137.96 79.9073 136.742 81.2878C136.286 81.8065 135.836 82.3346 135.385 82.8533C133.033 85.5817 130.604 88.4043 127.442 90.3756C126.318 91.0734 125.21 91.8375 124.138 92.5725C123.207 93.2145 122.263 93.8518 121.308 94.4682C119.197 95.8138 116.859 96.1464 113.94 95.5079C112.321 95.159 111.12 94.4403 109.974 93.1947C109.654 92.8143 109.353 92.418 109.073 92.0073C108.967 91.8526 108.85 91.7038 108.75 91.5421C108.525 91.1851 108.351 90.8082 108.168 90.4372C107.947 90.0094 107.753 89.5681 107.587 89.1161C107.587 89.1033 107.58 89.0905 107.575 89.0788C107.11 87.6274 106.877 86.0004 106.877 84.1756C106.877 81.5356 107.083 78.8467 107.28 76.2439C107.374 74.9809 107.469 73.7167 107.543 72.4548C107.587 71.6895 107.617 70.9243 107.647 70.1613C107.686 69.1495 107.732 68.1086 107.811 67.084C108.203 65.1837 108.356 63.2461 108.447 61.3295C108.614 57.8253 108.531 54.3107 108.549 50.7984C108.611 50.315 108.633 49.8271 108.614 49.34C108.602 49.1691 108.582 48.9981 108.57 48.8271C108.57 48.7352 108.57 48.6445 108.57 48.5538C108.596 47.3908 108.428 46.2522 108.249 45.1125C108.153 44.1169 108.054 43.1098 107.994 42.1061C107.978 41.8305 107.914 41.5746 107.886 41.3036C107.886 41.0152 107.854 40.7291 107.879 40.4384C107.896 40.2453 107.779 40.0429 107.689 39.8382C107.174 37.1517 106.061 34.7001 104.265 32.4124C103.948 32.01 103.543 31.396 103.416 30.7528C103.409 30.7168 103.416 30.6772 103.405 30.6423C103.426 29.9508 103.356 29.2594 103.196 28.5861C103.172 28.207 103.15 27.8278 103.102 27.451C103.005 26.7055 102.905 25.9833 102.805 25.2483C102.764 24.562 102.672 23.8798 102.53 23.2072C102.414 22.3873 102.306 21.6092 102.193 20.8149C102.16 20.4907 102.152 20.1645 102.17 19.8391C102.202 19.4902 102.053 19.1251 101.896 18.761C101.853 18.4735 101.764 18.1948 101.633 17.9353C100.968 16.0047 100.066 16.6269 99.1259 18.1272C99.0446 18.2389 98.9523 18.3422 98.8503 18.4354C98.67 18.6273 98.6096 18.8855 98.5572 19.1146L98.5316 19.2309C98.2835 20.2311 98.0385 21.2313 97.7966 22.2315C97.2 24.6738 96.5824 27.2022 95.9288 29.6747C95.7986 30.155 95.4264 30.6249 95.0636 31.0773L94.8856 31.3018C94.5925 31.6809 94.2495 32.0531 93.9192 32.4113C93.283 33.1033 92.6247 33.8173 92.2177 34.6652C90.5743 38.0821 89.5846 41.9177 89.2718 46.0627C89.0717 48.7376 89.0508 51.4579 89.0322 54.0932V54.3828C89.0252 55.169 89.0741 55.9633 89.1217 56.7309C89.1822 57.7346 89.2473 58.7755 89.1845 59.778C89.0601 61.8226 88.8822 63.9009 88.7077 65.9094C88.4844 68.5331 88.2506 71.2476 88.1332 73.9272C88.0588 75.61 88.1332 77.3208 88.1972 78.9735C88.2623 80.5807 88.3286 82.2403 88.2646 83.8581C88.1844 86.0451 87.804 88.2107 87.1342 90.2942C86.6759 91.677 85.506 94.067 82.8206 94.5426C81.2831 94.816 79.606 94.5706 78.0208 94.2961C74.1154 93.625 71.3917 90.9141 69.1517 88.4241C67.9248 87.075 66.8059 85.5886 65.715 84.1523C65.2909 83.591 64.8645 83.0308 64.4357 82.4718C63.41 81.1498 62.3788 79.8318 61.3421 78.5176C59.7837 76.53 58.2055 74.4994 56.6436 72.4513C56.3226 71.9396 56.019 71.4255 55.7783 70.965C54.8153 69.1332 54.2664 68.3738 53.2976 67.5283C52.8254 67.1166 52.4323 66.8003 52.0764 66.5165C51.3079 65.6232 50.4558 64.8054 49.5318 64.0742C49.5062 64.0416 49.4829 64.0172 49.4574 63.9834C48.5572 62.8425 47.8826 62.6088 46.979 62.4715C46.5231 62.2389 46.0776 61.9889 45.5938 61.7958C45.1717 61.6272 44.7797 61.305 44.3483 60.9561L43.0236 59.8769C41.578 58.7046 40.0847 57.4904 38.6704 56.2425C38.0227 55.6714 37.3911 55.0795 36.7678 54.4805C35.3187 53.1047 33.8219 51.6893 32.0715 50.603C31.7234 50.3777 31.3517 50.1909 30.9632 50.046C34.6406 45.2102 38.9775 40.9664 43.6935 37.1284H43.69ZM168.597 62.1529C168.431 62.5018 166.808 64.8371 165.719 66.3188C164.907 67.4187 164.038 68.475 163.116 69.4833C162.767 69.8624 162.43 70.0567 162.107 70.0648C161.962 70.0734 161.817 70.0412 161.689 69.9718C161.663 69.9497 161.628 69.9404 161.603 69.9183C161.577 69.8962 161.549 69.8741 161.522 69.8555C161.297 69.6382 161.101 69.3918 160.941 69.1228C160.84 68.9794 160.775 68.8135 160.752 68.6394C160.73 68.4653 160.75 68.2883 160.811 68.1238C160.821 68.0725 160.835 68.022 160.853 67.9726C160.932 67.8154 161.04 67.6743 161.171 67.5562C162.333 66.5171 163.551 65.5426 164.82 64.6371C166.1 63.7136 168.278 62.3122 168.597 62.1529ZM155.514 73.8109C155.459 73.3968 155.282 72.8723 155.784 72.7537C155.911 72.7249 156.042 72.7241 156.169 72.7514C156.296 72.7787 156.416 72.8334 156.519 72.9117C156.623 72.9901 156.708 73.0901 156.769 73.2048C156.83 73.3196 156.865 73.4462 156.872 73.5759C156.882 74.4191 157.532 75.2123 157.033 76.0973C156.907 76.3206 156.996 76.6579 156.952 76.9382C156.79 77.957 157.835 79.1479 157.068 79.8853C156.37 80.5563 155.673 81.289 154.905 81.917C153.522 83.0428 153.547 83.1242 152.634 81.6472C152.032 80.6715 152.04 80.6808 152.922 79.9818C154.918 78.4001 155.863 76.373 155.514 73.8109ZM143.938 86.155C143.452 84.6734 144.069 83.3871 145.419 82.7939C145.536 82.7404 145.706 82.787 146.007 82.787C146.177 82.7951 146.414 82.9277 146.385 83.2882C146.285 84.521 146.617 85.6596 147.09 86.7772C147.35 87.3867 147.493 88.0124 146.962 88.5659C146.38 89.173 145.858 88.6985 145.237 88.5799C144.423 88.4229 144.104 88.1984 144.19 87.3832C144.234 86.961 144.074 86.5702 143.938 86.155ZM114.287 110.675C114.001 110.852 113.684 111.217 113.384 111.204C112.082 111.146 111.15 111.911 110.116 112.483C109.791 112.663 109.477 113.219 108.944 112.657C108.49 112.177 108.372 111.644 108.595 111.12C108.772 110.711 109.155 110.354 109.52 110.073C111.119 108.823 112.581 108.809 113.707 109.993C113.841 110.125 113.955 110.277 114.287 110.675ZM96.8081 89.1695C97.1837 89.1475 97.5629 89.1695 98.3758 89.1695C98.9934 89.1265 99.8877 89.2533 100.733 90.1221C101.875 91.299 102.199 91.2118 103.831 90.1604C104.204 89.9209 104.413 89.7069 104.539 90.3384C104.848 91.8503 105.773 92.997 106.836 94.0344C107.417 94.6031 107.515 95.0811 106.888 95.6836C106.261 96.286 105.684 96.9629 104.714 96.3814C103.998 95.9511 103.551 95.2032 102.746 94.8253C101.378 94.1844 100.781 94.2856 100.62 95.6917C100.504 96.6931 100.302 97.0489 99.2329 97.2908C98.2816 97.506 97.1 97.9433 97.0732 99.4808C97.0604 100.272 96.2405 100.623 95.3752 100.579C94.7414 100.546 94.2436 100.434 94.3053 99.6483C94.3553 99.0063 94.2936 98.3852 94.5518 97.727C95.1461 96.2151 95.0659 94.6892 94.3355 93.1587C93.1423 90.6617 94.0075 89.3324 96.8081 89.1695ZM95.466 50.503C95.5218 49.4261 95.9474 48.9318 96.8616 48.8457C97.6419 48.7713 97.7408 49.2865 97.7338 49.8924C97.721 51.0927 97.1988 51.7056 96.1975 51.6765C95.345 51.6672 95.4392 51.038 95.466 50.503ZM101.638 53.9676C101.583 54.6503 101.057 54.5003 100.643 54.5084C100.171 54.5177 99.9935 54.2014 100.078 53.8106C100.17 53.3815 100.569 53.3745 101.032 53.3989C101.284 53.4478 101.681 53.4454 101.638 53.9676ZM102.268 80.3679C102.27 80.7346 102.132 81.0881 101.883 81.3573C101.634 81.6264 101.292 81.7911 100.926 81.8182C100.201 81.8752 99.5121 81.2797 99.4341 80.5319C99.4051 80.1673 99.5113 79.8048 99.7324 79.5135C99.9536 79.2222 100.274 79.0225 100.633 78.9525C100.836 78.9234 101.043 78.9382 101.24 78.9959C101.437 79.0536 101.619 79.153 101.774 79.2872C101.929 79.4214 102.053 79.5873 102.138 79.7738C102.224 79.9602 102.268 80.1628 102.268 80.3679ZM101.079 29.6991C100.832 30.0411 100.372 30.6737 100.088 30.6923C99.9469 30.7043 99.805 30.6885 99.6702 30.6458C99.2524 30.2938 98.9808 29.7987 98.9085 29.2572C98.8623 28.4948 98.8814 27.7299 98.9654 26.9707C99.1981 25.1332 99.5097 23.2212 99.9098 21.1243C100.058 20.3404 100.187 20.1113 100.259 20.0462C100.448 20.2939 100.704 21.2859 100.772 22.0675C100.954 24.1504 101.12 26.3439 101.268 28.7664C101.294 29.1479 101.237 29.4863 101.079 29.6991ZM105.042 129.105C103.972 130.414 105.034 132.092 104.285 133.408C103.851 134.171 102.917 134.294 102.16 134.592C101.833 134.72 101.417 134.613 101.041 134.613C100.759 134.613 100.476 134.635 100.196 134.613C100.04 134.595 99.8914 134.537 99.7646 134.444C99.6379 134.352 99.5372 134.228 99.4726 134.085C99.4079 133.942 99.3814 133.784 99.3957 133.628C99.4099 133.472 99.4645 133.322 99.5539 133.193C99.8796 132.74 100.299 132.351 100.702 131.959C101.666 131.019 102.33 129.962 102.274 128.542C102.254 128.033 102.095 127.393 102.936 127.248C103.866 127.086 104.407 127.371 104.807 128.358C104.908 128.607 105.133 128.993 105.042 129.105ZM97.6199 107.145C98.0534 106.984 98.4667 106.773 98.8515 106.516C99.4795 106.118 100.041 106.067 100.648 106.581C101.255 107.095 101.23 107.789 101.086 108.403C100.677 110.177 99.4667 111.281 97.7966 111.877C97.1163 112.119 96.2056 111.546 96.0626 110.831C95.9905 110.467 96.0498 110.077 96.0498 109.605C95.7404 108.335 96.3789 107.568 97.6199 107.145ZM103.098 118.146C102.353 118.284 101.733 118.003 101.19 117.383C100.437 116.525 100.354 116.023 100.976 115.197C101.729 114.197 102.133 114.111 103.245 114.72C103.562 114.893 103.961 115.008 104.176 115.27C104.612 115.811 105.504 116.069 105.447 116.898C105.404 117.495 104.08 118.135 103.098 118.146ZM101.197 99.8157C101.243 99.5308 101.502 99.4075 101.793 99.4761C102.064 99.5413 102.297 99.6669 102.218 99.9413C102.19 100.324 102.042 100.49 101.726 100.508C101.207 100.533 101.137 100.181 101.197 99.8157ZM94.596 134.782C95.0868 134.478 95.6567 134.576 96.1405 135.02C96.6243 135.464 96.8139 136.112 96.4894 136.532C95.7579 137.508 95.2671 138.602 94.6449 139.627C94.2332 140.307 93.661 141.076 92.6143 140.866C91.7827 140.7 91.4419 140.033 91.4431 138.497C91.3908 137.624 91.5292 136.81 92.6061 136.304C93.3458 135.96 93.8889 135.22 94.596 134.782ZM87.5796 137.247C86.7108 136.979 85.86 136.656 85.0326 136.28C84.693 136.117 84.0754 135.902 84.3348 135.325C84.4639 135.035 84.8802 134.707 85.185 134.689C86.3794 134.615 87.5854 134.515 88.7019 135.198C89.0857 135.431 89.2101 135.681 89.2218 136.136C89.2008 137.012 88.4856 137.547 87.5796 137.247ZM85.235 101.265C85.2501 102.798 84.172 103.887 82.6764 103.953C82.4446 103.966 82.2137 103.915 82.0087 103.806C81.8036 103.697 81.6323 103.534 81.5134 103.335C81.0877 102.674 81.054 101.917 81.4668 101.253C81.7541 100.788 82.2391 100.455 82.6031 100.037C83.0741 99.4924 83.6661 99.2226 84.3243 99.4982C85.0838 99.8239 85.3594 100.504 85.235 101.265ZM83.6393 119.707C84.2999 120.325 84.265 121.263 83.3823 122.464C82.8415 123.199 82.267 124.028 81.1726 123.86C79.6037 123.77 78.279 122.598 77.8557 120.964C77.6626 120.22 78.0883 119.831 78.9024 120.158C79.3781 120.346 79.7258 120.528 80.134 120.13C80.3364 119.933 80.5155 119.689 80.7551 119.561C81.6413 119.084 83.0764 119.179 83.6393 119.707ZM63.4739 90.9583C63.8228 90.8931 64.0892 91.035 64.1485 91.2967C64.2718 91.8352 64.252 92.3783 63.7461 92.7621C63.603 92.8702 63.3518 93.0773 63.3146 93.0459C63.0087 92.7877 63.0355 92.4074 63.068 92.0515C63.1053 91.6491 62.904 91.1222 63.4739 90.9583ZM63.6961 103.176C64.4416 101.496 65.6174 100.172 67.3526 99.518C68.3423 99.1458 70.0089 100.565 69.8809 101.518C69.8681 101.948 69.6111 102.1 69.2366 102.288C67.8538 102.986 66.1779 103.102 65.0766 104.4C64.8091 104.714 64.3985 104.428 64.1124 104.147C63.8263 103.865 63.5321 103.547 63.6961 103.176ZM57.9601 93.4203C58.0287 92.5446 58.5195 92.091 59.3906 92.0189C60.228 91.9491 61.8678 92.9493 61.8062 93.5052C61.7748 93.7832 60.207 94.7729 59.7325 94.816C59.1243 94.8683 57.9229 93.9321 57.9601 93.4203ZM57.424 87.5786C57.1518 87.0064 57.7926 85.8759 58.3893 85.8154C58.7312 85.7817 60.0175 86.7668 60.0965 87.1366C59.9372 87.5867 59.6104 87.981 59.158 87.9996C58.5684 88.0252 57.8124 88.3927 57.424 87.5786ZM54.4792 85.9038C54.2966 86.5051 53.757 86.2958 53.4244 86.3423C52.7266 86.3795 52.2614 86.2644 52.2707 85.4921C52.28 84.9525 52.4812 84.6385 53.0522 84.6408C53.8524 84.642 54.6502 85.3339 54.4792 85.9038ZM31.2981 52.0126C31.704 52.3208 32.2565 52.7744 33.0287 53.4675C35.0907 55.3144 37.2272 57.281 39.5602 59.4826C41.4512 61.262 42.256 62.7262 41.7082 63.3961C41.4163 63.752 41.0465 63.8986 40.5662 63.9148C39.673 63.8916 38.5797 63.1763 37.7749 62.0924C36.42 60.2641 35.1372 58.3312 33.8963 56.4611C33.3148 55.5865 32.7333 54.7166 32.146 53.8467C31.9134 53.4978 31.6715 53.164 31.4296 52.829C31.3714 52.7476 31.3133 52.6639 31.2574 52.5825C31.1667 52.434 31.0677 52.2907 30.9609 52.1533C30.8167 51.9498 30.8923 51.7579 31.2981 52.0126ZM29.0884 33.6743C29.1315 33.6417 29.2047 33.6545 29.2675 33.6464C29.3734 33.6976 29.5536 33.729 29.5734 33.8034C29.6799 34.1741 29.9091 34.4976 30.2235 34.721C30.7352 35.1141 30.8132 35.4188 30.2735 35.9073C29.7537 36.3725 29.4117 36.2771 28.9942 35.8305C28.4057 35.1909 28.4348 34.1628 29.0919 33.6743H29.0884ZM26.4949 39.6382C27.002 39.1986 27.3462 38.5194 28.1976 38.6043C28.65 38.6496 28.8954 38.7973 28.8954 39.2753C28.9105 40.3046 28.2231 40.9361 27.0601 40.9443C26.7508 40.9361 26.3751 40.9989 26.2274 40.6628C26.0727 40.293 26.1728 39.9173 26.4984 39.6382H26.4949ZM22.2616 49.8727C22.2988 47.5467 23.7677 46.0429 25.3331 44.6077C25.6389 44.3286 25.9006 43.7843 26.4333 44.11C26.8589 44.3693 27.2974 44.6915 27.33 45.273C27.3358 45.4009 27.33 45.5288 27.33 45.8812C27.3113 45.9719 27.3079 46.3069 27.1776 46.579C26.431 48.1596 25.7622 49.7575 25.3226 51.4637C25.076 52.4208 23.5304 52.6558 22.764 51.9766C22.1022 51.3904 21.58 50.7856 22.2651 49.8762L22.2616 49.8727ZM20.417 43.6273C20.651 43.6451 20.8787 43.7113 21.0858 43.8215C21.4428 44.0111 21.5893 44.3833 21.487 44.7996C21.3556 45.3346 20.9055 45.1427 20.6869 45.1764C20.1588 45.2206 19.746 45.1613 19.4738 44.8694C19.7902 44.4542 20.103 44.0367 20.4205 43.6308L20.417 43.6273ZM16.5791 49.8855C16.8051 49.4839 17.105 49.1288 17.463 48.8388C17.5793 48.7573 17.6316 49.1993 17.6444 49.3156C17.6898 49.9413 17.5398 50.2797 16.928 50.1948C16.7233 50.1751 16.4954 50.0297 16.5814 49.889L16.5791 49.8855ZM15.2196 54.898C16.0104 54.9236 17.1478 55.8936 17.0885 56.7588C17.0245 57.6893 17.5002 58.0009 18.1713 58.2917C18.5312 58.4248 18.881 58.5838 19.218 58.7674C20.1019 59.3175 20.1484 60.4898 19.218 60.9433C18.3643 61.3597 17.7375 61.8586 17.4304 62.7669C17.3537 62.9926 17.1408 63.1973 16.9443 63.3484C16.5768 63.6427 16.3628 64.2975 15.7115 64.0044C15.0602 63.7113 14.6648 62.9042 14.8404 62.2459C14.9305 61.8736 15.0839 61.5195 15.294 61.1992C15.8755 60.3607 15.886 59.2512 16.6501 58.4952C16.8268 58.3219 16.6791 57.9614 16.3453 57.9753C15.1823 58.0254 14.6148 57.3334 14.2252 56.3797C13.9926 55.8284 14.6276 54.8817 15.2196 54.898ZM15.8697 75.6728C15.7138 76.2183 15.5719 76.7672 15.4277 77.315C15.066 77.3034 14.8265 77.0638 14.6764 76.78C14.4345 76.3148 14.8625 76.0973 15.0986 75.8182C15.3161 75.5612 15.5405 75.4228 15.8697 75.6752V75.6728ZM7.57161 66.5165C7.56486 66.443 7.56253 66.3692 7.56463 66.2955C8.07713 64.9627 8.63111 63.6578 9.22657 62.3808C9.24728 62.3643 9.27133 62.3525 9.29707 62.3461C9.32281 62.3398 9.34961 62.3392 9.37561 62.3443C9.40162 62.3494 9.4262 62.3601 9.44766 62.3756C9.46912 62.3912 9.48694 62.4112 9.49988 62.4343C9.95694 63.0228 10.5733 63.0775 11.2444 63.0158C11.7945 62.9623 12.3679 63.0437 12.5237 63.6171C12.6633 64.1172 12.2725 64.5556 11.9131 64.9115C11.7805 65.0406 11.5491 65.0709 11.4235 65.2034C11.1327 65.514 10.5582 65.7524 10.8013 66.2722C10.9816 66.6549 11.4991 66.4921 11.8689 66.5048C12.1861 66.5225 12.4954 66.6098 12.7749 66.7607C13.6948 67.205 14.0891 68.0679 13.7379 68.9472C13.1959 70.2997 10.9909 71.4511 9.55803 71.1011C9.32543 71.0452 8.9521 70.8359 8.95559 70.7056C8.99397 69.2484 8.15428 68.1249 7.58789 66.8968C7.53905 66.7921 7.58906 66.6444 7.57161 66.5165ZM11.0537 90.8187C10.985 91.313 10.6687 91.6247 10.1523 91.6537C9.63595 91.6828 9.17307 91.3735 9.19285 90.9141C9.2382 89.8674 8.78812 88.9207 8.773 87.9042C8.76602 87.4646 8.68461 87.0098 8.96141 86.5958C9.2382 86.1818 9.28589 85.4944 9.92321 85.5398C10.6803 85.5945 10.6861 86.2458 10.7129 86.8493C10.7548 87.7972 11.3258 88.6753 11.0618 89.6406C11.063 90.0488 11.1048 90.4407 11.0537 90.8187ZM8.53458 74.304C8.76718 74.0086 8.99979 73.5608 9.37078 73.6062C9.7569 73.6504 9.95229 74.0714 9.91275 74.5063C9.86506 74.9983 10.1046 75.3356 10.3989 75.7031C10.8839 76.3102 10.8304 77.0243 10.4977 77.6802C10.4065 77.8559 10.2535 77.9915 10.0681 78.0609C9.88271 78.1302 9.67819 78.1285 9.49406 78.0558C8.7288 77.786 8.57296 77.0557 8.39967 76.3846C8.32175 76.0834 8.38688 75.7461 8.38688 75.3484C8.41596 75.0506 8.27174 74.6413 8.53342 74.3075L8.53458 74.304ZM3.20568 85.5619C3.26732 85.5479 3.32198 85.527 3.38246 85.5119C3.86976 85.6084 4.53267 86.4539 4.48034 86.9075C4.43265 87.3227 3.75811 88.0705 3.3906 88.1147C3.32896 88.1217 3.22778 88.1345 3.20568 88.1019C3.13357 87.9996 3.0603 87.8984 2.98936 87.7949C3.04867 87.0366 3.13125 86.2992 3.20568 85.5619ZM3.56272 104.042C3.40688 104.05 3.21382 103.918 3.0417 103.744C2.99285 103.27 2.94749 102.791 2.90795 102.312C3.0889 102.172 3.3139 102.103 3.54179 102.116C3.79253 102.122 4.0313 102.225 4.20765 102.403C4.38399 102.581 4.4841 102.821 4.48682 103.072C4.48953 103.323 4.39465 103.565 4.22221 103.747C4.04977 103.929 3.81329 104.037 3.56272 104.048V104.042ZM5.56659 109.625C5.41888 109.871 5.13511 109.908 4.89088 109.818C4.48266 109.666 4.09189 108.843 4.23959 108.434C4.29774 108.272 4.48731 108.157 4.60362 108.035C5.19675 108.061 5.85036 109.154 5.56659 109.626V109.625ZM9.77435 123.29C9.30915 124.004 8.22755 124.212 7.42158 123.905C6.75402 123.652 6.75867 123.196 6.84008 122.676C6.92149 122.156 7.26225 121.905 7.77049 121.862C8.52295 121.804 9.13121 122.134 9.67782 122.605C9.75747 122.701 9.82108 122.81 9.86623 122.927C9.83599 123.05 9.83948 123.193 9.77435 123.29ZM10.6768 114.734C10.6431 115.224 9.84529 116.013 9.3545 115.921C8.86371 115.829 8.71252 115.366 8.73811 114.874C8.77532 114.17 9.16726 113.717 9.75109 113.729C9.87804 113.734 10.0028 113.763 10.1182 113.817C10.2336 113.87 10.3373 113.945 10.4234 114.039C10.5096 114.132 10.5764 114.241 10.6201 114.361C10.6638 114.48 10.6835 114.607 10.678 114.734H10.6768ZM11.0537 112.396C10.3291 113.129 10.2837 113.116 9.53477 112.381C8.66135 111.523 8.49737 110.625 9.11725 110.1C9.71504 109.595 10.4547 109.765 11.256 110.603C11.47 110.825 11.6619 111.068 11.8201 111.25C11.7736 111.858 11.3502 112.091 11.0537 112.396ZM13.5262 110.651C13.6368 110.637 13.7493 110.649 13.8542 110.688C13.9437 111.224 14.0321 111.745 14.1205 112.259C14.0647 112.408 13.9565 112.529 13.6739 112.558C13.4203 112.577 13.1693 112.495 12.9757 112.33C12.782 112.165 12.6614 111.931 12.64 111.677C12.6295 111.552 12.6442 111.425 12.6831 111.305C12.722 111.185 12.7844 111.074 12.8667 110.978C12.9489 110.882 13.0494 110.804 13.1622 110.748C13.2751 110.691 13.398 110.658 13.5239 110.649L13.5262 110.651ZM12.6819 121.897C12.8319 120.974 12.9261 120.009 13.3971 119.158C13.8239 118.388 14.5834 118.121 15.2777 118.48C15.4847 119.511 15.6952 120.517 15.9092 121.497L16.086 122.311C16.2221 122.935 16.3593 123.566 16.5047 124.197C16.4287 124.196 16.3529 124.19 16.2779 124.177C15.4138 124.003 14.5555 123.791 13.71 123.542C12.904 123.303 12.5656 122.605 12.6819 121.897ZM16.6663 126.975C16.7966 126.758 16.9362 126.68 17.1641 126.699C17.3048 127.179 17.4456 127.658 17.613 128.134C17.4343 128.166 17.265 128.238 17.1176 128.344C16.9734 128.452 16.7198 128.461 16.621 128.258C16.5167 128.059 16.4656 127.836 16.4725 127.612C16.4794 127.387 16.5442 127.168 16.6605 126.975H16.6663ZM14.0193 146.176C13.9418 146.293 13.8508 146.4 13.7483 146.497C13.4367 145.941 13.1401 145.379 12.8435 144.817C13.125 144.56 13.5192 144.681 13.8426 144.97C14.2333 145.317 14.295 145.741 14.0193 146.176ZM18.3992 151.302C18.3376 151.609 18.0771 151.691 17.8177 151.658C17.3575 151.595 16.9223 151.411 16.557 151.124C16.0313 150.332 15.5498 149.519 15.0579 148.711C15.1657 148.555 15.3078 148.426 15.4733 148.333C15.6388 148.24 15.8233 148.186 16.0127 148.176C17.3641 148.128 18.455 149.18 18.455 150.714C18.4514 150.911 18.4327 151.108 18.3992 151.302ZM22.6535 158.912C22.6614 158.969 22.6566 159.027 22.6395 159.081C22.3848 158.788 22.1185 158.5 21.8685 158.208C21.594 157.882 21.3463 157.545 21.08 157.218C21.3068 157.081 21.5727 157.024 21.8359 157.054C22.2604 157.08 22.5837 156.608 23.0524 156.721C23.0431 157.475 22.5093 158.115 22.6535 158.912ZM25.14 155.606C24.5946 156.207 24.0782 156.886 23.1141 156.681C23.2652 156.216 23.3734 155.735 23.592 155.308C23.8572 154.793 24.3306 154.595 24.8783 154.882C25.14 155.019 25.475 155.239 25.14 155.606ZM26.7624 149.701C26.1809 149.768 25.7936 149.341 25.8087 148.733C25.8239 148.125 26.21 147.803 26.8124 147.803C27.3939 147.794 27.9684 147.803 28.5476 147.803C29.0477 148.5 29.5567 149.19 30.0747 149.873C29.8548 150.036 29.556 150.105 29.2012 150.125C28.3488 150.174 27.6358 149.599 26.7624 149.701ZM36.1991 162.908C35.4268 164.056 35.4605 165.312 35.4594 166.592C35.4594 167.071 34.907 167.325 34.4906 167.075C34.0987 166.842 33.823 166.493 33.5672 166.113C32.9659 165.23 32.9566 165.235 32.1634 166.013C31.8878 166.283 31.6133 166.553 31.3493 166.827C31.1237 167.06 30.8422 167.205 30.5666 167.169C30.3991 167.017 30.2235 166.872 30.0572 166.72C30.0268 166.494 30.0735 166.264 30.1898 166.068C30.5166 165.448 30.8248 164.817 31.1679 164.207C31.4703 163.667 31.5912 163.625 32.3309 163.677C32.9182 164.142 33.3346 163.742 33.8068 163.243C34.2789 162.744 34.6209 162.062 35.4838 162.101C36.0828 162.127 36.4886 162.476 36.1991 162.908ZM42.2223 167.553C41.6408 167.617 41.157 167.431 40.8906 166.797C40.7185 166.39 40.4766 166.011 40.3091 165.601C39.9056 164.627 40.4185 163.935 41.4349 164.056C41.9387 164.128 42.4104 164.346 42.7922 164.682C43.1739 165.019 43.4492 165.459 43.5842 165.95C43.8237 166.928 43.3318 167.534 42.2223 167.553ZM51.0611 171.959C50.5831 173.077 49.7307 173.662 48.5549 173.713C47.7198 173.749 47.0871 172.981 47.0639 171.946C47.0453 171.597 47.086 171.171 47.4628 170.824C47.935 170.389 48.3595 169.901 48.8375 169.473C49.469 168.91 49.8725 168.952 50.4785 169.581C51.3217 170.453 51.4473 171.063 51.0611 171.959ZM53.2767 179.431C53.2539 179.568 53.2083 179.7 53.1418 179.823C53.0441 179.974 52.8801 180.171 52.7359 180.182C52.48 180.195 52.2916 179.971 52.1951 179.739C52.1137 179.568 52.0877 179.377 52.1207 179.191C52.1536 179.005 52.2439 178.834 52.3788 178.701C52.5614 178.507 52.7812 178.353 53.0278 178.46C53.1534 178.517 53.2162 178.753 53.2697 178.925C53.3081 179.034 53.279 179.169 53.279 179.431H53.2767ZM53.5197 175.275C53.1569 175.305 52.9196 175.159 52.9033 174.765C52.8929 174.509 52.9161 174.237 53.2301 174.192C53.7081 174.126 53.793 174.57 53.9954 174.71C54.0163 175.187 53.7803 175.254 53.5221 175.275H53.5197ZM55.5573 175.999C55.3433 175.999 55.2398 175.853 55.2573 175.633C55.2695 175.51 55.3152 175.393 55.3894 175.294C55.4636 175.195 55.5635 175.118 55.6783 175.072C55.9586 174.936 55.9295 175.2 55.9841 175.357C55.9586 175.645 56.0318 176.01 55.5597 175.999H55.5573ZM53.6651 168.018C46.3382 164.079 40.6266 158.473 35.3117 152.22C29.2873 145.125 24.5666 137.276 20.7334 128.875C19.6029 126.396 19.0656 123.619 18.4736 120.93C17.6456 117.169 16.9617 113.371 16.3326 109.57C15.9325 107.128 15.5696 104.658 15.5184 102.195C15.4405 98.2038 15.3824 94.181 15.7708 90.2163C16.4832 82.8617 18.2456 75.6471 21.0044 68.7925C21.8324 66.7351 22.6907 64.6906 23.6048 62.6751C24.0782 61.854 24.5725 61.0352 24.7981 60.1409C26.0829 57.4855 27.5526 54.9236 29.1966 52.4743C29.4466 52.8849 29.7327 53.3663 30.0293 53.9444C31.5005 56.9996 33.0206 60.1234 34.6523 63.1379C35.6536 64.9825 36.6864 66.8921 36.0281 69.16C35.9629 69.4357 35.9589 69.7223 36.0165 69.9997C36.7399 74.4307 38.1401 78.0512 40.3045 81.068C41.2849 82.4346 42.3642 83.7592 43.4074 85.0374C45.3636 87.4425 47.386 89.922 48.8142 92.7621C49.0643 93.2564 49.4597 93.6588 49.8435 94.0414L50.1249 94.331C51.1212 95.3823 52.1226 96.4318 53.129 97.4792C54.7048 99.1296 56.2842 100.781 57.845 102.448C59.3336 104.039 60.806 105.642 62.2807 107.245C65.1428 110.358 68.1027 113.581 71.1195 116.642C73.3293 118.88 75.2296 120.959 76.203 123.756C76.6985 125.17 77.0567 126.664 77.4033 128.116L77.5952 128.912C78.8024 133.884 79.9852 144.628 78.3721 145.686C75.6878 147.45 73.0222 144.482 70.1996 141.337C68.854 139.837 67.4619 138.286 66.086 137.354C65.786 137.151 65.4883 136.942 65.1894 136.738C63.1622 135.342 61.0677 133.886 58.4695 133.436C58.1002 133.383 57.7273 133.359 57.3542 133.364C56.832 133.357 56.34 133.352 55.9376 133.179C53.707 132.229 51.4635 131.194 49.298 130.19C48.3436 129.748 47.3887 129.308 46.4335 128.87C46.3614 128.837 46.2695 128.789 46.1626 128.736C45.5182 128.402 44.9588 128.119 44.6506 128.437C44.2599 128.849 45.0972 129.802 45.3601 130.081L45.6473 130.387C47.5756 132.439 49.5702 134.562 51.5787 136.605L51.8264 136.853C52.3881 137.41 52.8731 137.89 52.9894 138.751C53.122 139.694 53.6465 140.572 54.2175 141.465C55.3084 143.162 56.9797 144.154 58.5963 145.115L59.3313 145.555C59.5639 145.698 59.8081 145.842 60.05 145.985C61.1828 146.652 62.3528 147.344 63.1715 148.278C66.0791 151.595 69.4995 154.286 72.7559 156.698C74.6749 158.12 76.1914 159.461 77.3335 161.118C77.5732 161.646 77.7403 162.204 77.8301 162.776C77.8952 163.218 78.1953 163.443 78.4756 163.694C78.4756 163.714 78.4884 163.732 78.4895 163.752C78.5849 165.837 78.5337 167.906 78.4756 169.476C78.4011 171.454 77.7964 174.019 77.2032 176.396C77.1351 176.8 77.0387 177.198 76.9148 177.587C68.3562 176.45 61.1223 172.027 53.6674 168.018H53.6651ZM54.2129 135.464C54.1745 135.531 54.1226 135.589 54.0605 135.634C53.9984 135.679 53.9275 135.711 53.8524 135.727C53.4662 135.79 52.9964 135.367 52.6242 135.056C51.8892 134.448 51.1728 133.813 50.482 133.184C50.0947 132.8 49.6946 132.429 49.3097 132.043C49.1445 131.876 49.077 131.608 48.9712 131.386C49.0038 131.379 49.0363 131.374 49.0677 131.366C49.9679 131.783 50.8413 132.265 51.681 132.761C52.2195 133.079 52.7568 133.393 53.3092 133.692C53.3533 133.717 53.3943 133.748 53.4314 133.783C54.328 134.554 54.5409 135.012 54.2152 135.464H54.2129ZM88.51 193.002C88.3228 192.976 88.1355 192.954 87.9483 192.927C87.8298 192.902 87.7132 192.869 87.5994 192.828C87.1086 192.62 86.7504 192.288 86.377 191.943C85.9851 191.582 85.6432 191.208 85.856 190.626C85.9886 190.262 87.04 189.631 87.4145 189.66C88.31 189.73 89.2834 190.809 89.2881 191.738C89.2927 192.567 89.0194 192.956 88.51 193.002ZM92.5666 188.741C91.9141 189.053 91.4768 188.596 91.107 188.143C90.6941 187.633 90.7267 186.933 91.1384 186.398C91.6431 185.735 92.0269 185.617 92.7736 185.941C93.1806 186.118 93.5633 186.352 93.968 186.537C94.2471 186.663 94.3111 186.886 94.3064 187.251C94.1308 188.11 93.2993 188.392 92.5689 188.741H92.5666ZM95.9056 193.269L95.5241 193.288C94.8972 193.333 94.2448 193.353 93.6005 193.356C93.4237 193.09 93.4551 192.762 93.7086 192.335C93.8715 192.063 94.0692 191.791 94.1459 191.492C94.3437 190.728 94.8938 190.659 95.4927 190.794C96.1905 190.957 96.2998 191.529 96.2463 192.171C96.287 192.368 96.2773 192.572 96.2181 192.764C96.1589 192.956 96.0522 193.13 95.9079 193.269H95.9056ZM99.8261 192.002C99.583 192.267 99.1992 192.428 98.8538 192.574C98.156 192.87 97.5501 192.56 97.4338 191.843C97.3849 191.533 97.3291 191.168 97.4419 190.897C97.8327 189.966 98.4328 189.158 99.1422 188.426C99.6772 187.874 100.339 188.138 100.941 188.044C101.735 187.98 102.472 188.017 102.98 188.777C103.359 189.341 103.303 189.86 102.732 190.245C102.513 190.371 102.286 190.482 102.053 190.578C101.264 190.97 100.452 191.319 99.8284 192.002H99.8261ZM108.931 192.427C108.2 192.494 107.468 192.559 106.739 192.627C104.96 192.796 103.145 192.902 101.341 192.994C101.969 191.973 102.714 190.9 103.676 190.241C104.637 189.581 105.221 188.782 105.691 187.786C105.903 187.338 106.01 186.654 106.576 186.599C107.371 186.523 107.417 186.104 107.523 185.469C107.673 184.572 108.21 184.394 108.831 184.985C109.431 185.555 109.947 186.071 110.808 185.433C111.012 185.283 111.274 185.507 111.484 185.675C112.011 186.098 112.274 186.689 112.474 187.295C112.917 188.639 113.466 189.919 114.439 190.975C114.656 191.207 114.684 191.52 114.742 191.825C112.817 192.071 110.858 192.255 108.934 192.427H108.931ZM115.163 189.171C114.851 189.11 114.581 188.918 114.588 188.601C114.588 188.39 114.843 188.136 115.087 188.208C115.23 188.246 115.355 188.332 115.441 188.452C115.527 188.572 115.569 188.718 115.559 188.865C115.501 189.096 115.365 189.205 115.165 189.166L115.163 189.171ZM123.517 186.76C123.237 186.683 122.979 186.452 123.026 186.082C123.05 185.877 123.173 185.763 123.521 185.8C123.65 185.828 123.766 185.895 123.854 185.992C123.943 186.089 123.998 186.212 124.012 186.342C124.024 186.551 123.749 186.824 123.517 186.76ZM134.422 178.386C133.805 178.422 133.44 177.944 133.416 177.064C133.392 176.184 133.503 176.059 134.359 176.049C134.887 176.042 135.379 176.021 135.382 176.8C135.379 177.791 135.087 178.347 134.419 178.385L134.422 178.386ZM147.247 179.4C147.184 179.749 146.493 180.021 145.915 179.912C145.252 179.785 145.412 179.271 145.45 178.851C145.501 178.293 145.964 178.386 146.327 178.386C146.66 178.389 147.292 179.119 147.242 179.399L147.247 179.4ZM147.74 172.57C147.658 172.964 147.412 173.281 146.991 173.296C146.435 173.317 145.728 172.383 145.839 171.807C145.863 171.624 145.945 171.453 146.073 171.32C146.201 171.186 146.369 171.098 146.551 171.066C147.136 171.101 147.85 172.006 147.736 172.569L147.74 172.57ZM166.149 165.863C165.904 165.601 165.64 165.359 165.358 165.137C163.805 163.954 163.624 162.099 163.653 160.29C163.667 159.476 164.66 159.085 165.199 159.682C166.172 160.761 167.21 161.853 167.12 163.49C167.103 163.811 167.004 164.234 167.157 164.439C167.213 164.513 167.263 164.59 167.305 164.672C166.919 165.071 166.537 165.471 166.145 165.862L166.149 165.863ZM168.781 158.173C168.299 158.405 167.845 158.693 167.429 159.03C167.127 159.263 166.732 158.767 166.655 158.398C166.459 157.467 166.872 156.641 167.364 155.911C167.729 155.37 168.738 155.658 168.902 156.318C168.976 156.622 168.913 156.958 168.913 157.517C168.901 157.592 169.073 158.038 168.777 158.173H168.781ZM170.635 146.328C170.61 146.238 170.599 146.145 170.603 146.052C170.87 145.642 171.138 145.238 171.393 144.815C171.564 144.899 171.777 144.987 172.065 145.103C172.244 145.159 172.414 145.241 172.568 145.348C172.916 145.636 173.033 145.988 172.634 146.314C172.382 146.504 172.109 146.663 171.82 146.788C171.248 147.052 170.809 146.883 170.631 146.327L170.635 146.328ZM176.16 153.717C174.997 155.461 173.745 157.133 172.438 158.781C172.274 158.722 172.105 158.677 171.934 158.645C171.236 158.529 171.003 158.102 170.959 157.435C170.857 156.074 171.355 154.799 171.472 153.465C171.579 152.244 172.743 151.461 173.798 151.701C174.739 151.916 175.587 152.153 176.554 151.721C176.787 151.618 177.092 151.774 177.335 151.994C176.937 152.566 176.54 153.139 176.157 153.715L176.16 153.717ZM176.185 150.124C175.681 150.044 175.409 149.759 175.225 149.31C174.892 148.496 174.534 147.682 174.178 146.875C174.062 146.602 174.146 146.386 174.34 146.191C174.977 145.551 175.812 145.441 176.55 145.898C177.577 146.538 177.964 147.222 177.967 148.402C177.969 149.875 177.488 150.33 176.181 150.123L176.185 150.124ZM176.279 136.182C176.764 136.317 177.355 136.531 177.791 137.031C177.938 137.199 177.915 137.388 177.841 137.568C177.744 137.801 176.411 138.515 176.212 138.39C175.779 138.128 175.346 137.824 175.265 137.248C175.189 136.737 175.619 136.204 176.275 136.181L176.279 136.182ZM177.545 119.667C176.382 124.152 175.379 128.697 173.892 133.075C171.969 138.745 169.258 144.048 165.402 148.734C161.099 153.968 155.955 158.184 150.368 161.941C143.88 166.305 137.288 170.473 130.15 173.73C125.883 175.678 121.387 176.793 116.807 177.585C114.53 177.978 112.245 178.356 109.954 178.67C109.969 178.269 109.958 177.868 109.92 177.469C109.873 177.236 109.826 177.003 109.78 176.778C109.734 176.499 109.698 176.211 109.652 175.936C109.429 174.581 109.21 173.204 109.071 171.812C109.043 171.304 109.015 170.795 109.027 170.282C109.045 169.342 109.046 168.399 109.058 167.457C109.071 167.325 109.065 167.192 109.082 167.059C109.78 161.79 108.984 156.579 108.036 151.259C107.518 148.362 107.543 146.12 108.121 143.988C108.174 143.794 108.199 143.591 108.246 143.396C108.526 142.346 108.727 141.276 108.849 140.197C108.935 139.595 109.025 138.992 109.101 138.399L109.115 138.292C109.37 136.314 109.652 134.172 110.259 132.079C110.846 130.358 111.616 128.705 112.555 127.149C114.639 123.927 116.915 120.977 120.723 119.45C122.422 118.768 123.962 117.668 125.453 116.604L125.615 116.487C130.157 113.248 133.63 110.697 136.876 108.214C137.44 107.781 138.027 107.322 138.611 106.868L138.709 106.791C140.862 105.109 143.053 103.228 144.998 101.002C145.58 100.353 146.12 99.6529 146.663 98.9586C146.68 98.933 146.703 98.9109 146.722 98.8853C147.901 97.2222 149.242 95.6231 150.539 94.0763C151.098 93.4099 151.656 92.7446 152.206 92.0724C152.738 91.4153 153.291 90.7722 153.841 90.1279C155.004 88.773 156.198 87.3715 157.214 85.8736L157.679 85.1921C159.359 82.7311 161.065 80.2039 162.194 77.3825C162.665 76.4904 163.095 75.5728 163.08 74.5168C163.148 74.2051 163.227 73.8993 163.28 73.5794C163.319 73.5001 163.37 73.4275 163.432 73.3643C163.495 73.2927 163.553 73.2169 163.605 73.1375L165.152 70.7417C166.508 68.6335 167.857 66.52 169.198 64.401C169.393 64.1114 169.576 63.8136 169.773 63.5252C169.996 63.1954 170.166 62.8328 170.276 62.4506C170.489 61.9738 170.66 61.4796 170.788 60.9736C171.578 62.2831 172.342 63.6055 173.056 64.9546C177.01 72.4222 179.329 80.4796 180.703 88.8102C181.358 92.7853 181.085 96.757 180.771 100.741C180.25 107.132 179.17 113.464 177.542 119.665L177.545 119.667ZM180.527 120.73C180.425 120.579 180.274 120.357 180.319 120.225C180.476 119.729 180.532 119.207 180.484 118.689C180.676 117.901 180.868 117.113 181.044 116.327C181.672 117.063 182.339 117.785 182.207 118.92C182.381 119.918 181.574 120.354 180.985 120.908C180.794 121.073 180.62 120.873 180.524 120.724L180.527 120.73ZM185.214 124.082C185.141 124.727 185.03 125.469 184.47 125.974C184.327 126.103 184.207 126.289 184.041 126.353C183.477 126.571 182.967 127.182 182.285 126.723C181.663 126.304 181.266 125.744 181.437 125.039C181.448 123.632 181.972 122.869 183.006 122.653C183.72 122.5 185.285 123.413 185.211 124.08L185.214 124.082ZM187.288 124.176C186.446 124.176 185.731 123.726 185.685 123.172C185.628 122.475 185.975 121.932 186.519 121.878C187.292 121.801 188.408 122.451 188.417 122.985C188.426 123.796 188.064 124.175 187.284 124.174L187.288 124.176ZM191.669 106.884C191.248 107.018 190.815 107.112 190.376 107.165C190.162 107.188 189.931 107.347 190.027 107.514C190.592 108.462 190.053 109.576 190.48 110.503C190.991 111.612 190.68 112.627 190.319 113.643C189.995 114.558 188.623 115.437 187.939 115.236C187.205 115.019 186.728 113.692 187.042 112.593C187.423 111.255 187.856 109.933 188.255 108.602C188.515 107.75 188.441 107.64 187.548 107.528C186.385 107.379 186.014 106.801 186.25 105.623C186.599 103.91 186.733 102.219 185.733 100.622C185.403 100.094 185.214 99.4587 185.035 98.8586C184.831 98.1701 184.83 97.4967 185.244 96.8291C185.9 95.7754 186.968 95.637 187.715 96.5884C187.909 96.8349 188.107 97.1234 188.169 97.4199C188.429 98.6399 189.307 99.3656 190.177 100.129C191.175 101.005 191.899 102.001 191.223 103.438C191.121 103.671 191.103 103.933 191.173 104.177C191.216 104.322 191.298 104.453 191.411 104.554C191.524 104.655 191.663 104.723 191.812 104.749C191.824 105.447 191.839 106.154 191.835 106.836L191.669 106.884Z" fill="white"/>
</svg>
