<svg id="Layer_1" data-name="Layer 1" xmlns="http://www.w3.org/2000/svg" viewBox="0 0 390 14.71"><defs><style>.cls-1{fill:#EB584B;stroke:#EB584B;}</style></defs><title>divider_mobile</title><path class="cls-1" d="M387.57,2.52c1,.1,1.45.4,2.43.45V14.71H0V1C.47,1,2.12.09,2.6.09A31.55,31.55,0,0,1,7.33.88C8.33,1.13,10,2.41,11,2.56s2-.24,3-.09,1.88,1.75,2.87,2,1.73,1.52,2.7,2c.78.38,2-.63,3.08-.54C23.56,6,24.5,4.1,25.54,4.2s1.88,2.26,2.66,2.66c1,.31,2.88-4.44,3.72-4.21,1,.27,1.9,2.3,2.87,2.49s2-2.34,2.92-2.26,1.78,1.43,2.76,1.43S42.28,6,43.29,5.93c.85-.08,1.89,5,2.8,4.94s1.9.11,2.81,0,.65,1.31,1.56,1.17,1.79-1.17,2.7-1.32,1.08-1.39,2-1.51,1.87.15,2.79,0,1.72-2.47,2.64-2.62,1.92,1.66,2.86,1.53,2,1.37,2.87,1.23S68,5.85,69,5.77s1.94,1.9,2.87,1.83,1.84,2.15,2.78,2.15,1.85-2,2.78-1.95S79.32,6,80.27,6.1a23,23,0,0,1,2.87.08c1,.25,1.41,4,2.4,4.3s2,.38,3,.66,1.65-2.5,2.62-2.28S93,10.62,94,10.78s2.14-8.31,3.13-8.21,2,.41,3,.46,2,2.18,3,2.2,1.8-1.05,2.71-1.07,1.8.62,2.71.57,2.53.08,3.43,0,2,3.7,2.92,3.54,1.47-4.46,2.39-4.67,2,1.52,2.87,1.27,1.54-2.26,2.46-2.58,2.11,1.24,3.07,1.06a25.82,25.82,0,0,1,2.91.11c.65,0,3,1.31,4.4,2.19a1.93,1.93,0,0,0,1.35.26,2,2,0,0,0,1.19-.7c.5-.57,1-1.15,1.43-1.22A3.16,3.16,0,0,0,138,3.44c.27-.33.53-.7.81-.78.47-.13.69-1.13,1.14-1.25s2.41.62,2.87.52,1.12-.52,1.6-.58,1-.92,1.44-1,1.43-.33,1.91-.33a31.34,31.34,0,0,1,4.73.79c1,.25,2.66,1.53,3.66,1.68s2-.23,3-.08,1.89,1.74,2.87,2,1.74,1.52,2.71,2c.78.37,2.14-.63,3.07-.54s1.88-1.84,2.91-1.74,1.88,2.26,2.66,2.67c1,.3,2.88-4.45,3.73-4.22,1,.27,2,2.32,2.87,2.49s2-2.34,2.93-2.26,1.77,1.43,2.75,1.43S187.51,6,188.52,5.9c.84-.08,1.77,5,2.79,4.94s1.9.11,2.81,0,.67,1.31,1.57,1.17,1.78-1.16,2.69-1.32,1.08-1.39,2-1.51,1.87.15,2.79,0,1.73-2.47,2.64-2.62,1.92,1.66,2.87,1.53,2,1.37,2.87,1.23,1.71-3.5,2.66-3.58,1.94,1.91,2.87,1.83,1.85,2.15,2.78,2.16,1.85-2,2.78-2,1.92-1.83,2.87-1.69a22.83,22.83,0,0,1,2.87.07c.92.25,1.4,4,2.39,4.3s2,.38,3,.66,1.64-2.5,2.61-2.28,1.89,1.76,2.87,1.92,2.14-8.3,3.13-8.2,2,.4,3,.45,2,2.18,3,2.2,1.79-1,2.7-1.07,1.8.62,2.71.58,2.53.07,3.44,0,2,3.7,2.92,3.55,1.46-4.47,2.39-4.68,2,1.52,2.87,1.27,1.53-2.26,2.45-2.58,2.16,1.24,3.08,1.07a25.34,25.34,0,0,1,2.87.1c.65-.05,3,1.31,4.41,2.19a1.93,1.93,0,0,0,1.35.26,2,2,0,0,0,1.19-.7c.49-.57,1-1.14,1.43-1.22a3,3,0,0,0,1.1-.51c.28-.33.54-.7.82-.78.47-.13.69-1.13,1.14-1.25s2.4.62,2.87.52,1.13-.52,1.61-.58.95-.92,1.43-1S292.52,0,293,0a32.58,32.58,0,0,1,4.72.82c1,.25,2.66,1.53,3.66,1.68s2-.23,3-.08,1.89,1.74,2.87,2S309,6,310,6.42c.79.37,2.14-.62,3.07-.54s2-1.83,2.91-1.74,1.88,2.27,2.66,2.67c1,.31,2.89-4.45,3.73-4.22,1,.27,1.9,2.3,2.87,2.5s2-2.35,2.92-2.27,1.78,1.43,2.76,1.43,1.81,1.7,2.82,1.62c.85-.08,1.78,5,2.81,4.94s1.9.11,2.8,0,.66,1.31,1.57,1.18,1.78-1.17,2.69-1.32,1.07-1.4,2-1.52,1.88.15,2.79,0,1.73-2.47,2.64-2.62,1.92,1.66,2.87,1.53,1.94,1.37,2.87,1.24,1.7-3.51,2.66-3.59,1.94,1.91,2.87,1.84,1.85,2.14,2.78,2.15,1.85-2,2.78-2,1.92-1.83,2.87-1.69a23,23,0,0,1,2.87.07c1,.25,1.5,4,2.39,4.3s2,.38,3,.66,1.65-2.49,2.61-2.28,1.9,1.77,2.87,1.92S386.58,2.42,387.57,2.52Z"/></svg>