<?xml version="1.0" encoding="utf-8"?>
<!-- Generator: Adobe Illustrator 24.0.0, SVG Export Plug-In . SVG Version: 6.00 Build 0)  -->
<svg version="1.1" id="Layer_1" xmlns="http://www.w3.org/2000/svg" xmlns:xlink="http://www.w3.org/1999/xlink" x="0px" y="0px"
	 viewBox="0 0 2007.8 26.5" style="enable-background:new 0 0 2007.8 26.5;" xml:space="preserve">
<style type="text/css">
	.st0{fill:#EB584B;}
</style>
<title>divider_desktop</title>
<path class="st0" d="M2007.8,26.5V1.2l-1.1,1.7c-0.1,0.2-0.3,0.6-0.5,0.6c-0.5,0.2-1,0.6-1.3,1.1l-0.1,0.1c-0.4,0.3-0.8,0.5-1.3,0.6
	c-0.8,0.1-1.4,0.9-2.2,1.7l-0.2,0.2c-0.7,0.9-1.9,1.1-2.9,0.5c-5.2-3.2-6.2-3.1-6.4-3.1c-0.6,0-1.1,0-1.7-0.1
	c-0.8-0.1-1.6-0.1-2.4,0c-0.4,0.1-1.1-0.3-1.7-0.7c-0.9-0.5-1.8-1.1-2.7-0.8c-0.9,0.4-1.6,1.1-2,2c-0.5,0.7-1,1.4-1.4,1.6
	c-0.4,0.1-1-0.4-1.6-0.8c-0.8-0.6-1.5-1.2-2.4-1s-1.3,1.5-2,3.6c-0.3,1-0.9,2.8-1.3,2.9c-0.3-0.1-1.1-1.5-1.5-2.2
	c-0.8-1.5-1.6-2.9-2.5-2.7c-0.9,0.1-1.9,0.1-2.8,0.1c-0.7,0-1.4,0-1.9,0c-0.6,0-1.2-0.1-1.7-0.4c-0.6-0.3-1.3-0.4-2-0.4
	c-0.8,0.1-1.5,0.3-2.1,0.8c-0.5,0.4-1.1,0.6-1.7,0.7c-0.4,0-1.1-0.7-1.6-1.3c-0.8-0.8-1.6-1.7-2.5-1.7c-0.7-0.1-1.5-0.2-2.2-0.3
	c-0.6-0.1-1.2-0.2-1.9-0.3c-1-0.1-1.6,1.6-2.7,6.1c-0.5,1.9-1.2,4.8-1.7,5.3c-0.6-0.3-1.2-0.7-1.7-1.2c-0.6-0.7-1.3-1.2-2.2-1.4
	c-1-0.2-1.7,0.8-2.3,1.8c-0.4,0.6-1,1.5-1.3,1.4c-0.6-0.2-1.3-0.3-1.9-0.4c-0.8-0.1-1.5-0.3-2.3-0.5c-0.4-0.1-0.9-1.7-1.3-2.6
	c-0.6-1.7-1.2-3.2-2.1-3.4c-0.8-0.2-1.6-0.2-2.4-0.1c-0.6,0.1-1.1,0.1-1.7,0c-0.9-0.1-1.7,0.6-2.4,1.3c-0.5,0.5-1.2,1.1-1.6,1.1
	c-0.9-0.1-1.7,0.7-2.4,1.5c-0.5,0.6-1.1,1.2-1.5,1.2l0,0c-0.4,0-1-0.7-1.5-1.3c-0.7-0.9-1.5-1.8-2.4-1.7c-0.4,0-1-0.6-1.6-1.1
	c-0.7-0.8-1.5-1.5-2.4-1.4s-1.6,1.3-2.3,2.8c-0.4,0.8-1.1,2.1-1.4,2.2s-1-0.4-1.6-0.8c-0.6-0.6-1.5-1-2.4-1c-0.5,0.1-1.1-0.5-1.6-1
	c-0.8-0.6-1.5-1.3-2.4-1.2s-1.5,1-2.2,2c-0.5,0.7-1.1,1.6-1.5,1.6c-0.6,0.1-1.3,0.1-1.9,0c-0.7-0.1-1.3-0.1-2,0
	c-0.7,0.2-1.3,0.6-1.7,1.2c-0.3,0.4-0.6,0.8-1.1,0.9c-0.8,0.2-1.5,0.5-2.1,1c-0.5,0.4-1.1,0.7-1.7,0.8c-0.2,0-0.3,0-0.6-0.6
	c-0.2-0.7-0.9-1.1-1.6-1.1c-0.6,0.1-1.3,0.1-1.9,0c-0.7-0.1-1.3-0.1-2,0c-0.4-0.1-1.2-2.2-1.6-3.4c-0.9-2.4-1.4-3.6-2.3-3.5
	c-0.6,0-1.2-0.5-1.8-1.1c-0.5-0.6-1.3-1.1-2.1-1.2c-0.5,0-1.2-0.5-1.8-0.9c-0.6-0.5-1.3-0.9-2-1.1c-0.9-0.1-1.6,0.8-2.4,1.7
	c-0.5,0.6-1.3,1.5-1.7,1.5s-1-0.8-1.6-1.5c-0.6-0.9-1.4-1.6-2.4-2c-0.9-0.2-1.6,0.9-2.9,3c-0.6,1-1.8,2.9-2.2,3
	c-0.5-0.4-0.9-0.9-1.2-1.4c-0.8-1.1-1.6-2.2-2.6-2.3c-0.9-0.1-1.7,0.6-2.4,1.4c-0.6,0.5-1.2,1.1-1.6,1.1c-0.7,0-1.5,0.2-2.1,0.5
	c-0.7,0.3-1.5,0.5-2,0.4c-0.6-0.3-1.1-0.8-1.6-1.3c-0.6-0.7-1.4-1.2-2.3-1.6c-0.6-0.3-1.2-0.7-1.7-1.2c-0.6-0.7-1.4-1.3-2.4-1.6
	c-0.7-0.1-1.5-0.1-2.2,0.1c-0.7,0.1-1.3,0.1-2,0.1c-0.9-0.3-1.7-0.7-2.5-1.1c-0.8-0.5-1.6-0.9-2.5-1.2c-2.2-0.5-4.4-0.9-6.7-1.1
	c-0.6,0-1.1,0.1-1.7,0.3c-0.3,0.1-0.7,0.2-1.1,0.2c-0.5,0.1-1,0.4-1.3,0.8c-0.2,0.2-0.5,0.5-0.7,0.5c-0.5,0.1-0.9,0.3-1.3,0.5
	c-0.3,0.1-0.6,0.3-0.9,0.4c-0.6-0.1-1.2-0.2-1.8-0.4c-0.7-0.3-1.5-0.4-2.3-0.4c-0.5,0.1-0.8,0.6-1.1,1.1c-0.2,0.2-0.4,0.6-0.5,0.7
	c-0.5,0.2-1,0.6-1.3,1.1l-0.1,0.1c-0.4,0.3-0.8,0.5-1.3,0.6c-0.8,0.1-1.5,0.9-2.2,1.8l-0.1,0.1c-0.7,0.9-1.9,1.1-2.9,0.5
	c-5.2-3.2-6.1-3.1-6.4-3.1c-0.6,0-1.1,0-1.7-0.1c-0.8-0.1-1.6-0.1-2.4,0c-0.4,0.1-1.1-0.3-1.7-0.7c-0.9-0.5-1.8-1.1-2.6-0.8
	c-0.9,0.5-1.5,1.1-2,2c-0.5,0.7-1,1.4-1.4,1.6s-1-0.4-1.6-0.8c-0.8-0.6-1.6-1.2-2.4-1s-1.3,1.5-2.1,3.6c-0.3,1-0.9,2.7-1.2,2.9
	c-0.3-0.1-1.1-1.5-1.5-2.2c-0.8-1.5-1.5-2.9-2.5-2.7c-0.9,0.1-1.8,0.1-2.8,0.1c-0.7,0-1.4,0-1.9,0c-0.6,0-1.2-0.1-1.7-0.4
	c-0.6-0.3-1.3-0.4-2-0.4c-0.8,0.1-1.5,0.3-2.2,0.8c-0.5,0.4-1.1,0.6-1.7,0.7c-0.4,0-1.1-0.8-1.6-1.3c-0.8-0.8-1.6-1.7-2.5-1.7
	c-0.7-0.1-1.5-0.2-2.2-0.3c-0.6-0.1-1.2-0.2-1.9-0.3c-1-0.1-1.6,1.6-2.7,6.1c-0.5,1.9-1.2,4.8-1.7,5.3c-0.6-0.3-1.2-0.7-1.7-1.2
	c-0.6-0.7-1.3-1.1-2.2-1.4c-1-0.2-1.7,0.8-2.3,1.8c-0.4,0.6-1,1.5-1.3,1.4c-0.6-0.2-1.3-0.3-1.9-0.4c-0.8-0.1-1.5-0.3-2.2-0.5
	c-0.4-0.1-1-1.7-1.3-2.6c-0.6-1.7-1.2-3.2-2.1-3.4c-0.8-0.2-1.6-0.2-2.4-0.1c-0.6,0.1-1.1,0.1-1.7,0c-0.9-0.1-1.7,0.6-2.5,1.3
	c-0.5,0.5-1.1,1.1-1.6,1.1c-0.9-0.1-1.6,0.7-2.4,1.5c-0.5,0.6-1.1,1.2-1.5,1.2l0,0c-0.4,0-1-0.7-1.5-1.3c-0.7-0.9-1.5-1.8-2.4-1.7
	c-0.4,0-1-0.6-1.6-1.1c-0.8-0.7-1.5-1.5-2.4-1.4s-1.6,1.3-2.3,2.8c-0.4,0.8-1.1,2.1-1.4,2.2s-1-0.4-1.6-0.8c-0.6-0.6-1.5-1-2.4-1
	c-0.5,0-1.1-0.5-1.6-1c-0.8-0.6-1.5-1.3-2.4-1.2s-1.5,1.1-2.2,2c-0.5,0.7-1.1,1.6-1.5,1.6c-0.6,0.1-1.3,0.1-1.9,0
	c-0.7-0.1-1.3-0.1-2,0c-0.7,0.2-1.3,0.7-1.7,1.3c-0.3,0.4-0.6,0.8-1.1,0.9c-0.7,0.2-1.5,0.5-2.1,1c-0.5,0.4-1.1,0.7-1.7,0.8
	c-0.2,0-0.3,0-0.6-0.5c-0.3-0.6-0.6-1.2-1.6-1.1c-0.6,0.1-1.3,0.1-1.9,0c-0.7-0.1-1.3-0.1-2,0c-0.4-0.1-1.2-2.2-1.6-3.4
	c-0.9-2.4-1.4-3.6-2.3-3.5c-0.5,0-1.2-0.5-1.8-1.1c-0.5-0.6-1.3-1-2.1-1.2c-0.7-0.1-1.3-0.5-1.8-0.9c-0.6-0.5-1.3-0.9-2-1.1
	c-0.9-0.1-1.6,0.8-2.4,1.7c-0.5,0.6-1.2,1.5-1.7,1.5c-0.4-0.1-1.1-0.8-1.7-1.5c-0.6-0.9-1.4-1.5-2.3-2c-0.9-0.2-1.6,0.9-2.9,3
	c-0.6,1-1.8,2.9-2.2,3c-0.5-0.4-0.9-0.9-1.2-1.4c-0.8-1.1-1.6-2.2-2.6-2.3c-0.9-0.1-1.7,0.6-2.4,1.3c-0.6,0.5-1.2,1.1-1.6,1.1
	c-0.7,0-1.5,0.2-2.2,0.5c-0.6,0.3-1.3,0.4-1.9,0.3c-0.6-0.3-1.1-0.8-1.6-1.2c-0.6-0.7-1.4-1.2-2.3-1.6c-0.6-0.3-1.2-0.7-1.7-1.2
	c-0.6-0.7-1.4-1.3-2.4-1.6c-0.7-0.1-1.5-0.1-2.2,0.1c-0.7,0.1-1.3,0.1-2,0.1c-0.9-0.3-1.8-0.7-2.6-1.2c-0.8-0.5-1.6-0.9-2.5-1.2
	c-2.2-0.5-4.5-0.9-6.7-1.1c-0.6,0-1.1,0.1-1.6,0.3c-0.4,0.1-0.7,0.2-1.1,0.2c-0.5,0.1-1,0.4-1.3,0.8c-0.2,0.2-0.5,0.5-0.7,0.5
	c-0.5,0.1-0.9,0.3-1.3,0.5c-0.3,0.1-0.6,0.3-0.9,0.4c-0.6-0.1-1.2-0.2-1.8-0.4c-0.7-0.3-1.5-0.4-2.3-0.4c-0.5,0.1-0.8,0.6-1.1,1.1
	c-0.1,0.2-0.4,0.6-0.5,0.7c-0.5,0.2-0.9,0.6-1.2,1l-0.1,0.1c-0.4,0.3-0.8,0.5-1.3,0.6c-0.8,0.1-1.5,0.9-2.2,1.8l-0.1,0.1
	c-0.7,0.9-1.9,1.1-2.9,0.5c-5.2-3.2-6.1-3.1-6.4-3.1c-0.6,0-1.1,0-1.7-0.1c-0.8-0.1-1.6-0.1-2.3,0c-0.6-0.1-1.2-0.3-1.7-0.7
	c-0.9-0.5-1.8-1.1-2.7-0.8c-0.8,0.5-1.5,1.2-2,2c-0.4,0.7-1,1.4-1.4,1.6c-0.4,0.1-1-0.4-1.5-0.8c-0.8-0.6-1.6-1.2-2.4-1
	s-1.4,1.5-2,3.6c-0.3,1-0.9,2.7-1.2,2.9c-0.3-0.1-1.1-1.5-1.5-2.2c-0.8-1.5-1.6-2.9-2.5-2.7c-0.9,0.1-1.9,0.1-2.8,0.1
	c-0.7,0-1.4,0-1.9,0c-0.6,0-1.2-0.1-1.7-0.4c-0.6-0.3-1.3-0.4-2-0.4c-0.8,0.1-1.5,0.4-2.1,0.8c-0.5,0.4-1.1,0.6-1.7,0.7
	c-0.4,0-1.1-0.8-1.7-1.3c-0.8-0.8-1.6-1.7-2.5-1.7c-0.7-0.1-1.5-0.2-2.2-0.3c-0.6-0.1-1.2-0.3-1.9-0.3c-1-0.1-1.6,1.6-2.7,6.1
	c-0.5,1.9-1.2,4.8-1.7,5.3c-0.6-0.3-1.2-0.7-1.7-1.2c-0.6-0.7-1.3-1.1-2.2-1.4c-1-0.2-1.7,0.8-2.3,1.8c-0.4,0.6-1,1.5-1.3,1.4
	c-0.6-0.2-1.3-0.3-1.9-0.4c-0.8-0.1-1.5-0.3-2.2-0.5c-0.5-0.2-1-1.7-1.4-2.8c-0.6-1.6-1.1-3-2-3.2c-0.8-0.2-1.6-0.2-2.4-0.1
	c-0.6,0.1-1.1,0.1-1.7,0c-0.9-0.1-1.7,0.6-2.5,1.3c-0.5,0.5-1.2,1.1-1.6,1c-0.9-0.1-1.6,0.7-2.4,1.5c-0.5,0.6-1.1,1.2-1.5,1.2l0,0
	c-0.4,0-1-0.7-1.5-1.3c-0.7-0.9-1.5-1.8-2.4-1.7c-0.4,0-1-0.6-1.6-1.1c-0.8-0.7-1.5-1.5-2.4-1.4s-1.6,1.3-2.3,2.8
	c-0.4,0.8-1.1,2.1-1.4,2.2s-1-0.4-1.6-0.8c-0.6-0.6-1.5-1-2.4-1c-0.5,0.1-1.1-0.5-1.6-1c-0.7-0.6-1.5-1.3-2.4-1.2s-1.5,1-2.2,2
	c-0.5,0.7-1.1,1.6-1.5,1.6c-0.6,0.1-1.3,0.1-1.9,0c-0.7-0.1-1.3-0.1-2,0c-0.7,0.2-1.3,0.6-1.7,1.2c-0.3,0.4-0.6,0.8-1.1,0.9
	c-0.7,0.2-1.5,0.5-2.1,1c-0.5,0.4-1.1,0.7-1.7,0.8c-0.2,0-0.3,0-0.6-0.5c-0.2-0.7-0.9-1.2-1.6-1.1c-0.6,0.1-1.3,0.1-1.9,0
	c-0.7-0.1-1.3-0.1-2,0c-0.4-0.1-1.2-2.2-1.6-3.3c-0.9-2.4-1.4-3.6-2.3-3.5c-0.5,0-1.2-0.5-1.8-1.1c-0.5-0.6-1.3-1-2.1-1.2
	c-0.7-0.1-1.3-0.5-1.8-0.9c-0.6-0.5-1.3-0.9-2.1-1.1c-0.8-0.1-1.6,0.8-2.3,1.7c-0.5,0.6-1.3,1.5-1.7,1.5c-0.4-0.1-1-0.8-1.6-1.5
	c-0.6-0.9-1.4-1.6-2.4-2c-0.9-0.2-1.6,0.9-2.9,3c-0.6,1-1.8,2.9-2.2,2.9c-0.5-0.4-0.9-0.9-1.2-1.5c-0.8-1.1-1.6-2.2-2.6-2.3
	c-1.1-0.1-1.8,0.7-2.5,1.4c-0.5,0.5-1.1,1.1-1.5,1c-0.7,0-1.5,0.2-2.2,0.5c-0.6,0.3-1.3,0.4-1.9,0.3c-0.6-0.3-1.1-0.8-1.6-1.2
	c-0.6-0.7-1.4-1.3-2.3-1.6c-0.6-0.3-1.2-0.7-1.7-1.2c-0.6-0.7-1.4-1.3-2.4-1.6c-0.7-0.1-1.5-0.1-2.2,0.1c-0.7,0.1-1.3,0.1-2,0.1
	c-0.9-0.3-1.8-0.7-2.6-1.2c-0.8-0.5-1.6-0.9-2.5-1.2c-2.2-0.5-4.4-0.9-6.7-1.1c-0.6,0-1.1,0.1-1.6,0.3c-0.4,0.1-0.7,0.2-1.1,0.2
	c-0.5,0.1-1,0.4-1.3,0.8c-0.2,0.2-0.5,0.5-0.7,0.5c-0.5,0.1-0.9,0.3-1.4,0.5c-0.3,0.1-0.6,0.3-0.9,0.4c-0.6-0.1-1.2-0.2-1.8-0.4
	c-0.7-0.3-1.5-0.4-2.3-0.4c-0.5,0.1-0.8,0.6-1.1,1.1c-0.1,0.2-0.4,0.6-0.5,0.7c-0.5,0.2-0.9,0.6-1.2,1l-0.1,0.1
	c-0.4,0.3-0.8,0.5-1.3,0.6c-0.8,0.1-1.4,0.9-2.1,1.7l-0.2,0.2c-0.7,0.9-1.9,1.1-2.9,0.5c-5.2-3.2-6.1-3.1-6.4-3.1
	c-0.6,0-1.1,0-1.7-0.1c-0.8-0.1-1.6-0.1-2.4,0c-0.5,0.1-1.1-0.3-1.7-0.7c-0.8-0.5-1.7-1.1-2.6-0.8c-0.9,0.5-1.5,1.1-2,2
	c-0.5,0.7-1,1.4-1.4,1.6c-0.4,0.1-1-0.4-1.5-0.8c-0.6-0.7-1.5-1-2.4-1c-0.9,0.2-1.3,1.5-2,3.6c-0.3,1-0.9,2.8-1.2,2.9
	c-0.3-0.1-1.1-1.5-1.5-2.2c-0.8-1.5-1.6-2.9-2.5-2.7c-0.9,0.1-1.9,0.1-2.8,0.1c-0.7,0-1.4,0-1.9,0c-0.6,0-1.2-0.1-1.7-0.4
	c-0.6-0.3-1.3-0.4-2-0.4c-0.8,0.1-1.5,0.4-2.1,0.8c-0.5,0.4-1.1,0.6-1.7,0.7c-0.4,0-1.1-0.7-1.6-1.3c-0.8-0.8-1.6-1.7-2.5-1.7
	c-0.7-0.1-1.5-0.2-2.2-0.3c-0.6-0.1-1.2-0.2-1.9-0.3c-1-0.1-1.6,1.6-2.7,6.1c-0.5,1.9-1.2,4.8-1.7,5.3c-0.6-0.3-1.2-0.7-1.7-1.2
	c-0.6-0.7-1.3-1.1-2.2-1.4c-1-0.2-1.7,0.8-2.3,1.8c-0.4,0.6-1,1.5-1.3,1.4c-0.6-0.2-1.3-0.3-1.9-0.4c-0.8-0.1-1.5-0.3-2.2-0.5
	c-0.5-0.2-1-1.7-1.4-2.7c-0.6-1.6-1.1-3-2-3.3c-0.8-0.2-1.6-0.2-2.4-0.1c-0.6,0.1-1.1,0.1-1.7,0c-0.9-0.1-1.7,0.6-2.5,1.3
	c-0.5,0.5-1.2,1.1-1.6,1c-0.9-0.1-1.6,0.7-2.4,1.5c-0.5,0.6-1.1,1.2-1.5,1.2l0,0c-0.4,0-1-0.7-1.5-1.3c-0.7-0.9-1.5-1.7-2.4-1.7
	c-0.4,0-1-0.6-1.6-1.1c-0.7-0.7-1.5-1.5-2.4-1.4s-1.6,1.3-2.3,2.8c-0.4,0.8-1.1,2.1-1.4,2.2s-1-0.4-1.6-0.8
	c-0.6-0.6-1.5-0.9-2.4-0.9c-0.4,0.1-1.1-0.5-1.6-1c-0.8-0.6-1.5-1.3-2.4-1.2s-1.5,1-2.2,2c-0.5,0.7-1.1,1.6-1.5,1.6
	c-0.6,0.1-1.3,0.1-1.9,0c-0.7-0.1-1.3-0.1-2,0c-0.7,0.2-1.3,0.6-1.7,1.2c-0.3,0.4-0.6,0.8-1.1,0.9c-0.7,0.2-1.4,0.5-2.1,1
	c-0.5,0.4-1.1,0.7-1.7,0.9c-0.2,0-0.3,0-0.6-0.5c-0.3-0.5-0.6-1.2-1.6-1.1c-0.6,0.1-1.3,0.1-1.9,0c-0.6-0.1-1.3-0.1-1.9,0
	c-0.4-0.2-1.1-2.1-1.6-3.2c-0.9-2.4-1.5-3.8-2.4-3.7c-0.5,0-1.2-0.5-1.8-1.1c-0.5-0.6-1.3-1-2.1-1.2c-0.7-0.1-1.3-0.5-1.7-0.9
	c-0.6-0.5-1.3-0.9-2.1-1.1c-0.9-0.1-1.6,0.8-2.4,1.7c-0.5,0.6-1.3,1.5-1.7,1.4c-0.4-0.1-1.1-0.8-1.7-1.5c-0.6-0.9-1.3-1.5-2.3-1.9
	c-0.9-0.2-1.6,0.9-2.9,3c-0.6,1-1.8,2.9-2.2,3c-0.5-0.4-0.9-0.9-1.2-1.5c-0.8-1.1-1.6-2.2-2.6-2.3s-1.8,0.7-2.5,1.4
	c-0.5,0.5-1.1,1-1.5,1c-0.8,0-1.6,0.2-2.3,0.5c-0.7,0.3-1.4,0.5-1.8,0.3c-0.6-0.3-1.1-0.8-1.6-1.2c-0.6-0.7-1.4-1.2-2.3-1.6
	c-0.6-0.3-1.2-0.7-1.7-1.2c-0.6-0.7-1.4-1.3-2.4-1.5c-0.7-0.1-1.5-0.1-2.2,0.1c-0.7,0.1-1.3,0.1-2,0.1c-0.9-0.2-1.7-0.6-2.5-1
	c-0.8-0.5-1.6-0.9-2.5-1.2c-2.2-0.5-4.5-0.9-6.7-1.1c-0.6,0-1.1,0.1-1.7,0.3c-0.3,0.1-0.7,0.2-1,0.2c-0.5,0.1-1,0.4-1.3,0.8
	c-0.2,0.2-0.5,0.5-0.7,0.5c-0.5,0.1-0.9,0.3-1.4,0.5c-0.3,0.1-0.6,0.3-0.9,0.4c-0.6-0.1-1.2-0.2-1.8-0.4c-0.7-0.3-1.5-0.4-2.3-0.4
	c-0.5,0.1-0.8,0.6-1.1,1.1c-0.1,0.2-0.4,0.6-0.5,0.7c-0.5,0.2-0.9,0.6-1.2,1.1l-0.1,0.1c-0.4,0.3-0.8,0.5-1.3,0.6
	c-0.8,0.1-1.5,1-2.3,1.9c-0.7,0.9-1.9,1.1-2.9,0.5c-5.2-3.2-6.1-3.1-6.4-3.1c-0.6,0-1.1,0-1.7-0.1c-0.8-0.1-1.6-0.1-2.3,0
	c-0.4,0.1-1.1-0.3-1.7-0.7c-0.9-0.5-1.8-1.1-2.7-0.8c-0.8,0.5-1.5,1.2-2,2c-0.5,0.7-1,1.4-1.4,1.6c-0.4,0.1-1-0.4-1.6-0.8
	c-0.6-0.7-1.5-1-2.4-1c-0.9,0.2-1.4,1.5-2.1,3.6c-0.3,1-0.9,2.8-1.2,2.9c-0.3-0.1-1.1-1.5-1.5-2.2c-0.8-1.5-1.6-2.9-2.5-2.7
	c-0.9,0.1-1.9,0.1-2.8,0.1c-0.7,0-1.4,0-1.9,0c-0.6,0-1.2-0.1-1.7-0.4c-0.6-0.3-1.3-0.4-2-0.4c-0.8,0.1-1.5,0.4-2.1,0.8
	c-0.5,0.4-1.1,0.6-1.7,0.7c-0.4,0-1.1-0.7-1.6-1.3c-0.8-0.8-1.6-1.7-2.5-1.7c-0.7-0.1-1.5-0.2-2.2-0.3c-0.6-0.1-1.2-0.2-1.9-0.3
	c-1-0.1-1.6,1.6-2.7,6.1c-0.5,1.9-1.2,4.8-1.7,5.3c-0.6-0.3-1.2-0.7-1.7-1.2c-0.6-0.7-1.4-1.2-2.2-1.4c-1-0.2-1.7,0.8-2.3,1.8
	c-0.4,0.6-1,1.5-1.3,1.4c-0.6-0.2-1.3-0.3-1.9-0.4c-0.8-0.1-1.5-0.3-2.3-0.5c-0.5-0.2-1-1.7-1.4-2.7c-0.6-1.6-1.1-3-2-3.3
	c-0.8-0.2-1.6-0.2-2.4-0.1c-0.6,0.1-1.1,0.1-1.7,0c-0.9-0.1-1.7,0.6-2.5,1.3c-0.5,0.5-1.1,1.1-1.6,1.1c-0.9-0.1-1.7,0.7-2.4,1.5
	c-0.5,0.6-1.1,1.2-1.5,1.2l0,0c-0.4,0-1-0.7-1.5-1.3c-0.7-0.9-1.5-1.7-2.4-1.7c-0.4,0-1-0.6-1.6-1.1c-0.7-0.7-1.5-1.5-2.4-1.4
	c-0.9,0.1-1.6,1.3-2.3,2.8c-0.4,0.8-1.1,2.1-1.4,2.2c-0.4,0.1-1.1-0.4-1.6-0.8c-0.6-0.6-1.5-0.9-2.4-0.9c-0.4,0.1-1.1-0.5-1.6-1
	c-0.8-0.6-1.5-1.3-2.4-1.2c-0.9,0.1-1.5,1-2.2,2c-0.5,0.7-1.1,1.6-1.5,1.6c-0.6,0.1-1.3,0.1-1.9,0c-0.7-0.1-1.3-0.1-2,0
	c-0.8,0.1-1.4,0.6-1.8,1.3c-0.3,0.4-0.6,0.8-1.1,0.9c-0.7,0.2-1.4,0.5-2.1,1c-0.5,0.4-1.1,0.7-1.7,0.8c-0.2,0-0.3,0-0.6-0.5
	c-0.3-0.5-0.6-1.2-1.6-1.1c-0.6,0.1-1.3,0.1-1.9,0c-0.6-0.1-1.3-0.1-2,0c-0.4-0.1-1.2-2.2-1.6-3.3c-0.9-2.4-1.4-3.6-2.3-3.5
	c-0.6,0-1.2-0.5-1.8-1.1c-0.5-0.6-1.3-1.1-2.1-1.2c-0.7-0.1-1.3-0.4-1.8-0.9c-0.6-0.5-1.2-0.9-2-1.1c-0.9-0.1-1.6,0.8-2.3,1.7
	c-0.5,0.6-1.3,1.5-1.7,1.5s-1-0.8-1.5-1.4c-0.6-0.9-1.4-1.6-2.4-2c-0.9-0.2-1.6,0.9-2.9,3c-0.6,1-1.8,2.9-2.2,3
	c-0.5-0.4-0.9-0.9-1.2-1.5c-0.8-1.1-1.6-2.2-2.6-2.3s-1.8,0.7-2.5,1.4c-0.5,0.5-1.1,1.1-1.5,1c-0.7,0-1.5,0.2-2.2,0.5
	c-0.8,0.3-1.5,0.5-1.9,0.3c-0.6-0.3-1.1-0.8-1.6-1.2c-0.6-0.7-1.4-1.2-2.3-1.6c-0.6-0.3-1.2-0.7-1.7-1.2c-0.6-0.7-1.4-1.3-2.4-1.6
	c-0.7-0.1-1.5-0.1-2.2,0c-0.7,0.1-1.3,0.1-2,0.1c-0.9-0.3-1.8-0.7-2.6-1.2c-0.8-0.5-1.6-0.9-2.5-1.2c-2.2-0.5-4.5-0.9-6.7-1.1
	c-0.6,0-1.1,0.1-1.6,0.3c-0.3,0.1-0.7,0.2-1.1,0.2c-0.5,0.1-1,0.4-1.3,0.8c-0.2,0.2-0.5,0.5-0.7,0.5c-0.5,0.1-0.9,0.3-1.4,0.5
	c-0.3,0.1-0.6,0.3-0.9,0.4c-0.6-0.1-1.2-0.2-1.8-0.4c-0.7-0.3-1.5-0.4-2.3-0.4c-0.5,0.1-0.8,0.6-1.1,1.1c-0.1,0.2-0.4,0.6-0.5,0.7
	c-0.5,0.2-1,0.6-1.3,1.1L993.4,5c-0.4,0.3-0.8,0.5-1.3,0.6c-0.8,0.1-1.4,0.9-2.1,1.7l-0.2,0.2c-0.7,0.9-1.9,1.1-2.9,0.5
	c-5.2-3.2-6.2-3.1-6.4-3.1c-0.6,0-1.1,0-1.7-0.1c-0.8-0.1-1.6-0.1-2.4,0c-0.6-0.1-1.2-0.3-1.7-0.7c-0.9-0.5-1.8-1.1-2.6-0.8
	c-0.9,0.4-1.6,1.1-2,2c-0.5,0.7-1,1.4-1.4,1.6s-1-0.4-1.6-0.8c-0.8-0.6-1.6-1.2-2.4-1s-1.3,1.5-2.1,3.6c-0.3,1-0.9,2.8-1.2,2.9
	c-0.3-0.1-1.1-1.5-1.5-2.2c-0.8-1.5-1.6-2.9-2.5-2.7c-0.9,0.1-1.9,0.1-2.8,0.1c-0.7,0-1.4,0-1.9,0c-0.6,0-1.2-0.2-1.7-0.4
	c-0.6-0.2-1.3-0.4-2-0.4c-0.8,0.1-1.5,0.4-2.1,0.8c-0.5,0.4-1.1,0.6-1.7,0.7c-0.4,0-1.1-0.7-1.6-1.3c-0.8-0.8-1.6-1.7-2.5-1.7
	c-0.7-0.1-1.5-0.2-2.2-0.3c-0.6-0.1-1.2-0.2-1.9-0.3c-1-0.1-1.6,1.6-2.7,6.1c-0.5,1.9-1.2,4.8-1.7,5.3c-0.6-0.3-1.2-0.7-1.7-1.2
	c-0.6-0.7-1.4-1.2-2.2-1.4c-1-0.2-1.7,0.8-2.3,1.8c-0.4,0.6-1,1.5-1.3,1.4c-0.6-0.2-1.3-0.3-1.9-0.4c-0.8-0.1-1.5-0.3-2.3-0.5
	c-0.5-0.2-1-1.7-1.4-2.7c-0.6-1.6-1.1-3-2-3.3c-0.8-0.2-1.6-0.2-2.4-0.1c-0.6,0.1-1.1,0.1-1.7,0c-0.9-0.1-1.7,0.6-2.4,1.3
	c-0.5,0.5-1.1,1.1-1.6,1.1l0,0c-0.9,0-1.7,0.7-2.4,1.5c-0.5,0.6-1.1,1.2-1.5,1.2l0,0c-0.4,0-1-0.7-1.5-1.3c-0.7-0.9-1.5-1.8-2.4-1.7
	c-0.4,0-1-0.6-1.6-1.1c-0.8-0.7-1.5-1.5-2.4-1.4s-1.6,1.3-2.3,2.8c-0.4,0.8-1,2.1-1.4,2.2s-1-0.4-1.6-0.8c-0.6-0.6-1.5-0.9-2.4-0.9
	c-0.4,0.1-1.1-0.5-1.6-1c-0.7-0.6-1.5-1.3-2.4-1.2s-1.5,1-2.2,2c-0.5,0.7-1.1,1.6-1.5,1.6c-0.6,0.1-1.3,0.1-1.9,0
	c-0.7-0.1-1.3-0.1-2,0c-0.7,0.2-1.3,0.6-1.7,1.2c-0.3,0.4-0.6,0.8-1.1,0.9c-0.7,0.2-1.4,0.5-2.1,1c-0.5,0.4-1.1,0.7-1.7,0.8
	c-0.2,0-0.3,0-0.6-0.5c-0.3-0.5-0.6-1.2-1.6-1.1c-0.6,0.1-1.3,0.1-1.9,0c-0.6-0.1-1.3-0.1-1.9,0c-0.4-0.1-1.2-2.2-1.6-3.3
	c-0.9-2.4-1.4-3.6-2.3-3.5c-0.5,0-1.2-0.5-1.8-1.1c-0.5-0.6-1.3-1-2.1-1.2c-0.7-0.1-1.3-0.5-1.8-0.9c-0.6-0.5-1.2-0.9-2-1.1
	c-0.9-0.1-1.6,0.8-2.4,1.7c-0.5,0.6-1.2,1.5-1.7,1.5s-1-0.8-1.6-1.4c-0.6-0.9-1.4-1.6-2.4-2c-0.9-0.2-1.6,0.9-2.9,3
	c-0.6,1-1.8,2.9-2.2,3c-0.5-0.4-0.9-0.9-1.2-1.5c-0.8-1.1-1.6-2.2-2.6-2.3s-1.8,0.7-2.5,1.4c-0.5,0.5-1.1,1.1-1.5,1
	c-0.7,0-1.5,0.2-2.2,0.5c-0.7,0.3-1.5,0.5-1.9,0.3c-0.6-0.3-1.1-0.8-1.6-1.2c-0.6-0.7-1.4-1.2-2.3-1.6c-0.6-0.3-1.2-0.7-1.7-1.2
	c-0.6-0.7-1.4-1.3-2.4-1.6c-0.7-0.1-1.5-0.1-2.2,0.1c-0.7,0.1-1.3,0.1-2,0.1c-0.9-0.3-1.8-0.7-2.6-1.2c-0.8-0.5-1.6-0.9-2.5-1.2
	c-2.2-0.5-4.4-0.9-6.7-1.1c-0.6,0-1.1,0.1-1.7,0.3c-0.3,0.1-0.7,0.2-1.1,0.2c-0.5,0.1-1,0.4-1.3,0.8c-0.2,0.2-0.5,0.5-0.7,0.5
	c-0.5,0.1-0.9,0.3-1.3,0.5c-0.3,0.1-0.6,0.3-0.9,0.4c-0.6-0.1-1.2-0.2-1.8-0.4c-0.7-0.3-1.5-0.4-2.3-0.4c-0.5,0.1-0.8,0.6-1.1,1.1
	c-0.1,0.2-0.4,0.6-0.5,0.7c-0.5,0.2-1,0.6-1.3,1.1L791.1,5c-0.4,0.3-0.8,0.5-1.3,0.6c-0.8,0.1-1.5,0.9-2.2,1.8l-0.1,0.1
	c-0.7,0.9-1.9,1.1-2.9,0.5c-5.2-3.2-6.1-3.1-6.4-3.1c-0.6,0-1.1,0-1.7-0.1c-0.8-0.1-1.6-0.1-2.4,0c-0.4,0.1-1.1-0.3-1.7-0.7
	c-0.9-0.5-1.8-1.1-2.7-0.8c-0.9,0.5-1.5,1.1-2,2c-0.5,0.7-1,1.4-1.4,1.6s-1-0.4-1.6-0.8c-0.8-0.6-1.6-1.2-2.4-1s-1.3,1.5-2,3.6
	c-0.3,1-0.9,2.7-1.2,2.9c-0.3-0.1-1.1-1.5-1.5-2.2c-0.8-1.5-1.6-2.9-2.5-2.7c-0.9,0.1-1.9,0.1-2.8,0.1c-0.7,0-1.4,0-1.9,0
	c-0.6,0-1.2-0.1-1.7-0.4c-0.6-0.3-1.3-0.4-2-0.4c-0.8,0.1-1.5,0.4-2.1,0.8c-0.5,0.3-1.1,0.6-1.7,0.7c-0.4,0-1.1-0.8-1.6-1.3
	c-0.8-0.8-1.6-1.7-2.5-1.7c-0.7-0.1-1.5-0.2-2.2-0.3c-0.6-0.1-1.2-0.2-1.9-0.3c-1-0.1-1.6,1.6-2.7,6.1c-0.5,1.9-1.2,4.8-1.7,5.3
	c-0.6-0.3-1.2-0.7-1.7-1.2c-0.6-0.7-1.3-1.1-2.2-1.4c-1-0.2-1.7,0.8-2.3,1.8c-0.4,0.6-1,1.5-1.3,1.4c-0.6-0.2-1.3-0.3-1.9-0.4
	c-0.8-0.1-1.5-0.3-2.3-0.5c-0.4-0.1-0.9-1.7-1.3-2.6c-0.6-1.7-1.2-3.2-2.1-3.4c-0.8-0.2-1.6-0.2-2.4-0.1c-0.5,0.1-1.1,0.1-1.7,0
	c-0.9-0.1-1.7,0.6-2.5,1.3c-0.5,0.5-1.1,1.1-1.6,1c-0.9-0.1-1.6,0.7-2.4,1.5c-0.5,0.6-1.1,1.2-1.5,1.2l0,0c-0.4,0-1-0.7-1.5-1.3
	c-0.7-0.9-1.5-1.8-2.4-1.7c-0.4,0-1-0.6-1.6-1.1c-0.7-0.7-1.5-1.5-2.4-1.4s-1.6,1.3-2.3,2.8c-0.4,0.8-1.1,2.1-1.4,2.2
	s-1-0.4-1.6-0.8c-0.6-0.6-1.5-0.9-2.4-0.9c-0.4,0.1-1.1-0.5-1.6-1c-0.8-0.6-1.5-1.3-2.4-1.2s-1.5,1-2.2,2c-0.5,0.7-1.1,1.6-1.5,1.6
	c-0.6,0.1-1.3,0.1-1.9,0c-0.7-0.1-1.3-0.1-2,0c-0.7,0.2-1.4,0.6-1.7,1.2c-0.3,0.4-0.6,0.8-1.1,0.9c-0.8,0.2-1.5,0.5-2.1,1
	c-0.5,0.4-1.1,0.7-1.7,0.8c-0.2,0-0.3,0-0.6-0.5c-0.2-0.7-0.9-1.1-1.6-1.1c-0.6,0.1-1.3,0.1-1.9,0c-0.7-0.1-1.3-0.1-2,0
	c-0.4-0.1-1.2-2.2-1.6-3.3c-0.9-2.4-1.4-3.6-2.3-3.5c-0.6,0-1.2-0.5-1.8-1.1c-0.5-0.6-1.3-1-2.1-1.2l0,0c-0.7-0.1-1.3-0.5-1.8-0.9
	c-0.6-0.5-1.2-0.9-2-1.1c-0.8-0.1-1.6,0.8-2.3,1.7c-0.5,0.6-1.3,1.5-1.7,1.5s-1-0.8-1.6-1.5c-0.6-0.9-1.4-1.6-2.4-2
	c-0.9-0.2-1.6,0.9-2.9,3c-0.6,1-1.8,2.9-2.2,3c-0.5-0.4-0.9-0.9-1.2-1.4c-0.8-1.1-1.6-2.2-2.7-2.3c-0.9-0.1-1.7,0.6-2.4,1.4
	c-0.6,0.5-1.2,1.1-1.6,1.1c-0.7,0-1.5,0.2-2.1,0.5c-0.7,0.3-1.6,0.5-2,0.3c-0.6-0.3-1.1-0.8-1.6-1.2c-0.6-0.7-1.4-1.2-2.3-1.6
	c-0.6-0.3-1.2-0.7-1.7-1.2c-0.6-0.7-1.4-1.3-2.4-1.6c-0.7-0.1-1.5-0.1-2.2,0.1c-0.7,0.1-1.3,0.1-2,0.1c-0.9-0.3-1.8-0.7-2.6-1.2
	c-0.8-0.5-1.6-0.9-2.5-1.2c-2.2-0.5-4.4-0.9-6.7-1.1c-0.6,0-1.1,0.1-1.6,0.3c-0.4,0.1-0.7,0.2-1.1,0.2c-0.5,0.1-1,0.4-1.3,0.8
	C598.5,1.7,598.2,2,598,2c-0.5,0.1-0.9,0.3-1.3,0.5c-0.3,0.1-0.6,0.3-0.9,0.4c-0.6-0.1-1.2-0.2-1.8-0.4c-0.7-0.3-1.5-0.4-2.3-0.4
	c-0.5,0.1-0.8,0.6-1.1,1.1c-0.2,0.2-0.4,0.6-0.5,0.7c-0.5,0.2-0.9,0.6-1.2,1L588.8,5c-0.4,0.3-0.8,0.5-1.3,0.6
	c-0.8,0.1-1.5,0.9-2.2,1.8l-0.1,0.1c-0.7,0.9-1.9,1.1-2.9,0.5c-5.2-3.2-6.1-3.1-6.4-3.1c-0.6,0-1.1,0-1.7-0.1
	c-0.8-0.1-1.6-0.1-2.4,0c-0.4,0.1-1.1-0.3-1.7-0.7c-0.9-0.5-1.8-1.1-2.7-0.8c-0.9,0.5-1.5,1.1-2,2c-0.5,0.7-1,1.4-1.4,1.6
	s-1-0.4-1.6-0.8c-0.6-0.7-1.5-1-2.4-1c-0.9,0.2-1.3,1.5-2,3.6c-0.3,1-0.9,2.7-1.2,2.9c-0.3-0.1-1.1-1.5-1.5-2.2
	c-0.8-1.5-1.6-2.9-2.5-2.7c-0.9,0.1-1.9,0.1-2.8,0c-0.7,0-1.4,0-1.9,0c-0.6,0-1.2-0.1-1.7-0.4c-0.6-0.3-1.3-0.4-2-0.4
	c-0.8,0.1-1.5,0.4-2.1,0.8c-0.5,0.4-1.1,0.6-1.7,0.7c-0.4,0-1.1-0.8-1.6-1.3c-0.8-0.8-1.6-1.7-2.5-1.7c-0.7-0.1-1.5-0.2-2.2-0.3
	c-0.6-0.1-1.2-0.2-1.9-0.3c-1-0.1-1.6,1.6-2.7,6.1c-0.5,1.9-1.2,4.8-1.7,5.3c-0.6-0.3-1.2-0.7-1.7-1.2c-0.6-0.7-1.3-1.1-2.2-1.4
	c-1-0.2-1.7,0.8-2.3,1.8c-0.4,0.6-1,1.5-1.3,1.4c-0.6-0.2-1.3-0.3-1.9-0.4c-0.8-0.1-1.5-0.3-2.3-0.5c-0.5-0.2-1-1.6-1.4-2.7
	c-0.6-1.6-1.1-3-2-3.3c-0.8-0.2-1.6-0.2-2.4-0.1c-0.6,0.1-1.1,0.1-1.7,0c-0.9-0.1-1.7,0.6-2.5,1.3c-0.5,0.5-1.1,1.1-1.6,1
	c-0.9-0.1-1.6,0.7-2.4,1.5c-0.5,0.6-1.1,1.2-1.5,1.2l0,0c-0.4,0-1-0.7-1.5-1.3c-0.7-0.9-1.5-1.8-2.4-1.7c-0.4,0-1-0.6-1.6-1.1
	c-0.8-0.7-1.5-1.5-2.4-1.4s-1.6,1.3-2.3,2.8c-0.4,0.8-1,2.1-1.4,2.2s-1-0.4-1.6-0.8c-0.6-0.6-1.5-0.9-2.4-0.9c-0.5,0-1.1-0.5-1.6-1
	c-0.7-0.6-1.5-1.3-2.4-1.2s-1.5,1-2.2,2c-0.5,0.7-1.1,1.6-1.5,1.6c-0.6,0.1-1.3,0.1-1.9,0c-0.7-0.1-1.3-0.1-2,0
	c-0.7,0.2-1.3,0.6-1.7,1.2c-0.3,0.4-0.6,0.8-1.1,0.9c-0.7,0.2-1.5,0.5-2.1,1c-0.5,0.4-1.1,0.7-1.7,0.8c-0.2,0-0.3,0-0.6-0.5
	c-0.2-0.7-0.9-1.1-1.6-1.1c-0.6,0.1-1.3,0.1-1.9,0c-0.6-0.1-1.3-0.1-1.9,0c-0.4-0.2-1.1-2.1-1.6-3.2c-0.9-2.5-1.5-3.8-2.4-3.7
	c-0.5,0-1.2-0.5-1.8-1.1c-0.5-0.6-1.3-1-2.1-1.2l0,0c-0.7-0.1-1.3-0.5-1.8-0.9c-0.6-0.5-1.3-0.9-2.1-1.1c-0.9-0.1-1.6,0.8-2.3,1.7
	c-0.5,0.6-1.3,1.5-1.7,1.5s-1-0.8-1.6-1.5c-0.6-0.9-1.4-1.6-2.4-2c-0.9-0.2-1.6,0.9-2.9,3c-0.6,1-1.8,2.9-2.2,3
	c-0.5-0.4-0.9-0.9-1.2-1.5c-0.8-1.1-1.6-2.2-2.6-2.3s-1.8,0.7-2.5,1.4c-0.5,0.5-1.1,1-1.5,1c-0.8,0-1.6,0.2-2.3,0.5
	c-0.7,0.3-1.4,0.5-1.8,0.3c-0.6-0.3-1.1-0.8-1.6-1.2c-0.6-0.7-1.4-1.3-2.3-1.6c-0.6-0.3-1.2-0.7-1.7-1.2c-0.6-0.7-1.4-1.3-2.4-1.6
	c-0.7-0.1-1.5-0.1-2.2,0.1c-0.7,0.1-1.3,0.1-2,0.1c-0.9-0.3-1.8-0.7-2.6-1.2c-0.8-0.5-1.6-0.9-2.5-1.2c-2.2-0.5-4.4-0.9-6.7-1.1
	c-0.6,0.1-1.1,0.2-1.7,0.3c-0.4,0.1-0.7,0.2-1.1,0.2c-0.5,0.1-1,0.4-1.3,0.8c-0.2,0.2-0.5,0.5-0.7,0.5c-0.5,0.1-0.9,0.3-1.4,0.5
	c-0.3,0.1-0.6,0.3-0.9,0.4c-0.6-0.1-1.2-0.2-1.8-0.4c-0.7-0.3-1.5-0.4-2.3-0.4c-0.5,0.1-0.8,0.6-1.1,1.1c-0.1,0.2-0.4,0.6-0.5,0.7
	c-0.5,0.2-0.9,0.6-1.2,1l-0.1,0.1c-0.4,0.3-0.8,0.5-1.3,0.6c-0.8,0.1-1.4,0.9-2.1,1.7l-0.2,0.2c-0.7,0.9-1.9,1.1-2.9,0.5
	c-5.2-3.2-6.1-3.1-6.4-3.1c-0.6,0-1.1,0-1.7-0.1c-0.8-0.1-1.6-0.1-2.3,0c-0.6-0.1-1.2-0.3-1.7-0.7c-0.9-0.5-1.8-1.1-2.7-0.8
	c-0.8,0.5-1.5,1.2-2,2c-0.4,0.7-1,1.4-1.4,1.6s-1-0.4-1.6-0.8c-0.8-0.6-1.6-1.2-2.4-1s-1.3,1.5-2,3.6c-0.3,1-0.9,2.7-1.2,2.9
	c-0.3-0.1-1.1-1.5-1.5-2.2c-0.8-1.5-1.6-2.9-2.5-2.7c-0.9,0.1-1.9,0.1-2.8,0c-0.7,0-1.4,0-1.9,0c-0.6,0-1.2-0.1-1.7-0.4
	c-0.6-0.3-1.3-0.4-2-0.4c-0.8,0.1-1.5,0.4-2.1,0.8c-0.5,0.4-1,0.6-1.7,0.7c-0.4,0-1.1-0.8-1.6-1.3c-0.8-0.8-1.6-1.7-2.5-1.7
	c-0.7-0.1-1.5-0.2-2.2-0.3c-0.6-0.1-1.2-0.2-1.9-0.3c-1-0.1-1.6,1.6-2.7,6.1c-0.5,1.9-1.2,4.8-1.7,5.3c-0.6-0.3-1.2-0.7-1.7-1.2
	c-0.6-0.7-1.3-1.2-2.2-1.4c-1-0.2-1.7,0.8-2.3,1.8c-0.4,0.6-1,1.5-1.3,1.4c-0.6-0.2-1.3-0.3-1.9-0.4c-0.8-0.1-1.5-0.3-2.2-0.5
	c-0.5-0.2-1-1.7-1.4-2.8c-0.6-1.6-1.1-3-2-3.2c-0.8-0.2-1.6-0.2-2.4-0.1c-0.6,0.1-1.1,0.1-1.7,0c-0.9-0.1-1.7,0.6-2.5,1.3
	c-0.6,0.5-1.2,1.1-1.6,1.1c-0.9-0.1-1.6,0.7-2.4,1.5c-0.5,0.6-1.1,1.2-1.5,1.2l0,0c-0.4,0-1-0.7-1.5-1.3c-0.7-0.9-1.5-1.7-2.4-1.7
	c-0.4,0.1-1-0.6-1.6-1.1c-0.8-0.7-1.5-1.5-2.4-1.4s-1.6,1.3-2.3,2.8c-0.4,0.8-1.1,2.1-1.4,2.2s-1-0.4-1.6-0.8
	c-0.6-0.6-1.5-0.9-2.4-0.9c-0.5,0.1-1.1-0.5-1.6-1c-0.7-0.6-1.5-1.3-2.4-1.2s-1.5,1-2.2,2c-0.5,0.7-1.1,1.6-1.5,1.6
	c-0.6,0.1-1.3,0.1-1.9,0c-0.7-0.1-1.3-0.1-2,0c-0.7,0.2-1.4,0.6-1.7,1.2c-0.3,0.4-0.6,0.8-1.1,0.9c-0.7,0.2-1.4,0.5-2.1,1
	c-0.5,0.4-1.1,0.7-1.7,0.9c-0.2,0-0.3,0-0.6-0.6c-0.2-0.7-0.9-1.2-1.6-1.1c-0.6,0.1-1.3,0.1-1.9,0c-0.7-0.1-1.3-0.1-2,0
	c-0.4-0.1-1.2-2.2-1.6-3.3c-0.9-2.4-1.4-3.6-2.3-3.5c-0.5,0-1.2-0.5-1.8-1.1c-0.5-0.6-1.3-1-2.1-1.2l0,0c-0.7-0.1-1.3-0.5-1.8-0.9
	c-0.6-0.5-1.2-0.9-2-1.1c-0.9-0.1-1.6,0.8-2.3,1.7c-0.5,0.6-1.3,1.5-1.7,1.5s-1.1-0.8-1.7-1.5c-0.6-0.9-1.4-1.5-2.3-2
	c-0.9-0.2-1.6,0.9-2.9,3c-0.6,1-1.8,2.9-2.2,2.9c-0.5-0.4-0.9-0.9-1.2-1.5c-0.8-1.1-1.6-2.2-2.6-2.3s-1.8,0.7-2.5,1.4
	c-0.5,0.5-1.1,1.1-1.5,1c-0.8,0-1.6,0.2-2.3,0.5c-0.7,0.3-1.4,0.5-1.8,0.3c-0.6-0.3-1.1-0.8-1.6-1.2c-0.6-0.7-1.4-1.3-2.3-1.6
	c-0.6-0.3-1.2-0.7-1.7-1.2c-0.6-0.7-1.4-1.3-2.4-1.5c-0.7-0.1-1.5-0.1-2.2,0.1c-0.7,0.1-1.3,0.1-2,0.1c-0.9-0.3-1.8-0.7-2.6-1.2
	c-0.8-0.5-1.6-0.9-2.5-1.2c-2.2-0.5-4.4-0.9-6.7-1.1c-0.6,0-1.1,0.1-1.7,0.3c-0.3,0.1-0.7,0.2-1.1,0.2c-0.5,0.1-1,0.4-1.3,0.8
	c-0.2,0.2-0.5,0.5-0.7,0.5c-0.5,0.1-0.9,0.3-1.4,0.5c-0.3,0.1-0.6,0.3-0.9,0.4c-0.6-0.1-1.2-0.2-1.8-0.4c-0.7-0.3-1.5-0.4-2.3-0.4
	c-0.5,0.1-0.8,0.6-1.1,1.1c-0.1,0.2-0.4,0.6-0.5,0.7c-0.5,0.2-0.9,0.6-1.2,1l-0.1,0.1c-0.4,0.3-0.8,0.5-1.3,0.6
	c-0.8,0.1-1.4,0.9-2.1,1.7l-0.2,0.2c-0.7,0.9-1.9,1.1-2.9,0.5c-5.2-3.2-6.1-3.1-6.4-3.1c-0.6,0-1.1,0-1.7-0.1
	c-0.8-0.1-1.6-0.1-2.3,0c-0.4,0.1-1.1-0.3-1.7-0.7c-0.9-0.5-1.8-1.1-2.7-0.8c-0.8,0.5-1.5,1.2-2,2c-0.5,0.7-1,1.4-1.4,1.6
	s-1-0.4-1.6-0.8c-0.8-0.6-1.6-1.2-2.4-1s-1.3,1.5-2,3.6c-0.3,1-0.9,2.7-1.2,2.9c-0.3-0.1-1.1-1.5-1.5-2.2c-0.8-1.5-1.6-2.9-2.5-2.7
	c-0.9,0.1-1.9,0.1-2.8,0c-0.7,0-1.4,0-1.9,0c-0.6,0-1.2-0.1-1.7-0.4c-0.6-0.3-1.3-0.4-2-0.4c-0.8,0.1-1.5,0.4-2.1,0.8
	c-0.5,0.4-1.1,0.7-1.7,0.8c-0.4,0-1.1-0.7-1.6-1.3c-0.8-0.8-1.6-1.7-2.5-1.7c-0.7-0.1-1.5-0.2-2.2-0.3c-0.6-0.1-1.2-0.2-1.9-0.3
	c-1-0.1-1.6,1.6-2.7,6.1c-0.5,1.9-1.2,4.8-1.7,5.3c-0.6-0.3-1.2-0.7-1.7-1.2c-0.6-0.7-1.4-1.2-2.2-1.5c-1-0.2-1.7,0.8-2.3,1.8
	c-0.4,0.6-1,1.5-1.3,1.4c-0.6-0.2-1.3-0.3-1.9-0.4c-0.8-0.1-1.5-0.3-2.2-0.5c-0.5-0.2-1-1.7-1.4-2.7c-0.6-1.6-1.1-3-2-3.3
	c-0.8-0.2-1.6-0.2-2.4-0.1c-0.6,0.1-1.1,0.1-1.7,0c-0.9-0.1-1.7,0.6-2.5,1.3c-0.5,0.5-1.1,1.1-1.6,1c-0.9-0.1-1.6,0.8-2.4,1.5
	c-0.5,0.6-1.1,1.2-1.5,1.2l0,0c-0.4,0-1-0.7-1.5-1.3c-0.7-0.9-1.5-1.7-2.4-1.7c-0.4,0.1-1-0.6-1.6-1.1c-0.8-0.7-1.5-1.5-2.4-1.4
	S86.7,9.6,86,11c-0.4,0.8-1.1,2.1-1.4,2.2s-1-0.4-1.6-0.8c-0.6-0.6-1.5-1-2.4-1c-0.4,0.1-1.1-0.5-1.6-1c-0.8-0.6-1.5-1.3-2.4-1.2
	s-1.5,1-2.2,2c-0.5,0.7-1.1,1.6-1.5,1.6c-0.6,0.1-1.3,0.1-1.9,0c-0.7-0.1-1.3-0.1-2,0c-0.7,0.2-1.3,0.6-1.7,1.2
	c-0.3,0.4-0.6,0.8-1.1,0.9c-0.7,0.2-1.4,0.5-2.1,1c-0.5,0.4-1.1,0.7-1.7,0.8c-0.2,0-0.3,0-0.6-0.5c-0.2-0.7-0.9-1.2-1.6-1.1
	c-0.6,0.1-1.3,0.1-1.9,0c-0.7-0.1-1.3-0.1-2,0c-0.4-0.1-1.2-2.2-1.6-3.3c-0.9-2.4-1.4-3.6-2.3-3.5c-0.6,0-1.2-0.5-1.8-1.1
	c-0.5-0.6-1.3-1-2.1-1.2l0,0c-0.7-0.1-1.3-0.5-1.8-0.9c-0.6-0.5-1.2-0.9-2-1.1h-0.1c-0.8,0-1.5,0.8-2.2,1.7
	c-0.5,0.6-1.2,1.5-1.7,1.5s-1-0.8-1.6-1.4c-0.6-0.9-1.4-1.6-2.4-2c-0.9-0.2-1.6,0.9-2.9,3c-0.6,1-1.8,2.9-2.2,3
	c-0.5-0.4-0.9-0.9-1.2-1.5c-0.8-1.1-1.6-2.2-2.6-2.3S26,6.7,25.2,7.4c-0.5,0.5-1.1,1-1.4,1c-0.8,0-1.6,0.2-2.3,0.5
	c-0.7,0.3-1.4,0.5-1.8,0.3c-0.6-0.3-1.1-0.8-1.6-1.2c-0.6-0.7-1.4-1.2-2.3-1.5c-0.6-0.3-1.2-0.7-1.7-1.2c-0.6-0.7-1.4-1.3-2.4-1.6
	C11,3.6,10.3,3.7,9.5,3.8c-0.7,0.1-1.3,0.1-2,0.1C6.6,3.6,5.7,3.2,5,2.7C4.2,2.2,3.3,1.8,2.5,1.5C2.1,1.4,1.4,1.3,0.6,1.1L0,1v25.5
	H2007.8z"/>
</svg>
