<svg width="40" height="1048" viewBox="0 0 40 1048" fill="none" xmlns="http://www.w3.org/2000/svg">
<path d="M32.9089 20.076C32.3684 18.5881 31.9993 17.0434 31.8086 15.4719C31.5604 13.8469 30.4714 12.6225 29.9862 11.0934C29.7202 10.1967 29.3688 9.32755 28.9367 8.49797C27.1481 5.28748 24.3438 2.77664 21.3308 0.632554C20.8278 0.223383 20.1991 0 19.5507 0C18.9022 0 18.2736 0.223383 17.7705 0.632554C16.2809 1.94722 14.6898 3.18289 13.4654 4.71196C11.3957 7.22567 9.79762 10.093 8.74841 13.1755C8.53298 14.0377 8.20677 14.8684 7.77793 15.6468C6.57611 17.4749 5.98931 19.5964 5.43071 21.5995C4.36996 25.425 4.43202 29.4028 5.09782 33.3355C5.50971 35.8689 6.36734 38.2839 7.04442 40.7496C7.91143 43.8991 9.68754 46.7232 12.1507 48.8689C13.2924 49.9549 14.6505 50.7877 16.1362 51.3127C17.6219 51.8378 19.2017 52.0433 20.7722 51.9157C21.7495 51.8464 22.6985 51.5571 23.5483 51.0694C26.7982 49.2243 28.6602 46.2339 30.3191 43.0911C31.141 41.6145 31.6806 39.9976 31.9102 38.3234C31.9568 37.887 32.0592 37.4585 32.2149 37.0482C33.4167 33.8828 33.3998 30.5369 33.4223 26.892C33.4223 26.6541 33.4053 26.4165 33.3716 26.181C33.1684 24.3699 33.7609 22.1976 32.9089 20.076ZM24.6429 7.34129L24.6936 7.49363H24.5469L24.6429 7.34129ZM15.3387 46.6176C15.2484 46.5781 15.1242 46.5837 15.0565 46.5217C13.4033 44.9982 11.5019 43.7005 10.932 41.2912C10.4975 39.5026 9.54962 37.8663 9.04745 36.0326C7.91898 31.7162 8.20674 27.4449 8.70891 23.1398C8.8765 21.8721 9.19667 20.6293 9.66247 19.4385C10.7345 16.5778 11.8517 13.7341 13.0479 10.9411C13.5884 9.89151 14.225 8.89421 14.9493 7.96195C15.0058 7.88295 15.728 7.10995 15.4064 7.91117C13.8096 11.4263 13.0648 15.1841 12.2015 18.9137C11.6881 21.1707 11.8291 23.4276 11.8009 25.6845C11.7558 28.8273 11.6091 32.0096 12.4329 35.1072C12.9632 37.099 13.9563 41.6128 15.2202 44.6992C15.4477 45.2457 15.6234 45.8125 15.7449 46.3919C15.8183 46.6176 15.5587 46.7079 15.3387 46.6176ZM20.8004 41.4436C20.4238 42.3568 19.9846 43.2428 19.4858 44.0955C19.2544 44.5468 18.8143 44.5976 18.6112 44.1914C18.2614 43.4917 17.9228 42.7808 17.6294 42.0529C15.4331 36.6775 14.4394 30.8866 14.718 25.0864C14.5134 21.3886 14.9116 17.6821 15.8972 14.1121C16.8226 10.9016 17.9172 7.73625 18.961 4.56526C19.1134 4.10259 19.5253 4.09131 19.9089 4.32828C20.2961 4.54946 20.6298 4.8532 20.8862 5.21792C21.1427 5.58264 21.3157 5.99938 21.3929 6.43852C22.1095 9.89727 23.0179 13.2883 23.3508 16.8599C23.6127 20.0599 23.6579 23.274 23.4862 26.4801C23.3436 31.5741 22.4383 36.618 20.8004 41.4436ZM29.7323 35.0169C29.6373 35.5286 29.4661 36.0231 29.2244 36.484C28.3442 38.1767 28.4119 40.2361 27.4527 41.9909C26.4935 43.7456 25.1337 45.1449 23.9319 46.6289C23.7544 46.9074 23.5198 47.1449 23.2435 47.3259C22.9673 47.5068 22.6557 47.6269 22.3295 47.6783C22.2312 47.6804 22.1356 47.6457 22.0615 47.581C21.9874 47.5163 21.9401 47.4262 21.9289 47.3285C21.9261 46.3696 22.1627 45.4251 22.6173 44.5807C23.6797 42.1641 24.5458 39.6659 25.2071 37.1102C25.3357 36.6203 25.4337 36.1228 25.5005 35.6207C25.8221 32.9011 26.234 30.1871 26.3807 27.4562C26.5707 24.7252 26.5801 21.9845 26.4089 19.2523C26.1832 16.29 25.2127 13.4237 25.4215 10.4333C25.4215 10.1512 25.3482 9.80135 25.7713 9.79571C25.9124 9.79571 26.0817 9.97626 26.1889 10.1117C27.1424 11.2966 27.5092 12.7466 27.9775 14.1459C28.6941 16.29 29.6702 18.3438 30.0144 20.6177C30.686 25.4019 30.5908 30.2627 29.7323 35.0169Z" fill="white"/>
<path d="M21.1219 184.116C21.2806 185.372 21.3748 186.636 21.404 187.902C21.3476 189.002 20.8398 189.645 20.1514 189.594C19.3276 189.544 18.9778 188.974 18.8029 188.263C18.628 187.552 18.47 186.925 18.3572 186.248C18.075 184.511 17.6801 182.818 17.4318 181.046C17.1446 179.424 16.5427 177.873 15.6601 176.482C14.2561 173.918 12.1934 171.775 9.68488 170.275C8.05707 169.343 6.14473 169.038 4.30774 169.417C3.3429 169.581 2.37242 169.705 1.39629 169.778C1.09713 169.79 0.804092 169.691 0.573069 169.501C0.342046 169.311 0.189205 169.042 0.143696 168.746C-0.0142895 168.221 0.0759879 167.668 0.668433 167.617C3.20184 167.29 5.63933 166.545 8.11631 165.975C9.84813 165.61 11.4817 164.878 12.9073 163.829C14.333 162.779 15.5178 161.438 16.3823 159.893C17.8741 157.364 18.5866 154.452 18.4305 151.52C18.3797 150.572 18.2725 149.539 18.8819 148.699C18.9842 148.529 19.1358 148.396 19.3163 148.315C19.6492 148.219 19.779 148.512 19.9088 148.749C20.3658 149.573 20.1627 150.482 20.253 151.351C20.49 153.675 20.7269 155.932 21.7538 158.161C23.5199 162.009 26.5103 164.193 30.2738 165.643C32.4968 166.506 34.8666 166.483 37.1687 166.867C37.8458 166.98 38.5398 167.002 39.2056 167.149C39.3978 167.197 39.5678 167.309 39.6869 167.468C39.8061 167.626 39.8672 167.82 39.8601 168.018C39.8601 168.509 39.8601 169.022 39.2959 169.237C38.7316 169.451 37.9304 169.344 36.7342 169.31C33.4989 169.163 30.268 169.686 27.2438 170.845C25.8072 171.354 24.5298 172.232 23.5395 173.391C22.5492 174.549 21.8808 175.948 21.6015 177.446C21.1677 179.641 21.0066 181.881 21.1219 184.116Z" fill="white"/>
<path d="M34.9059 313.557C34.2458 308.033 34.1047 302.379 30.9902 297.453C29.7658 292.906 26.7584 289.712 23.0909 287.015C21.1274 285.571 20.0158 285.554 18.2441 287.212C12.8726 292.291 9.17689 298.305 7.77759 305.64C7.37134 307.756 6.64912 309.849 6.55884 311.971C6.46292 314.538 6.26544 317.106 6.6999 319.724C7.32056 323.476 8.1387 327.092 9.97246 330.444C10.9334 332.279 12.2735 333.889 13.9038 335.168C15.5341 336.446 17.4174 337.363 19.429 337.858C19.8561 337.999 20.3059 338.058 20.755 338.033C23.7792 337.644 26.5553 336.634 28.4793 334.134C29.2085 333.278 29.894 332.385 30.5331 331.46C31.955 329.152 33.6364 327.002 34.0596 324.125C34.5168 321.539 34.8033 318.927 34.9172 316.304C34.9676 315.389 34.9638 314.471 34.9059 313.557ZM16.7545 333.248C16.5375 333.191 16.3302 333.102 16.1395 332.983C13.8826 331.115 12.1899 328.887 11.5636 325.953C8.32489 319.599 9.65649 313.02 10.5875 306.458C10.9768 303.711 12.252 301.256 13.1152 298.666C13.5342 297.165 14.5031 295.875 15.8292 295.055C15.4117 297.809 14.9434 300.551 14.6048 303.316C14.396 305.008 14.4976 306.752 14.2776 308.445C14.0067 310.51 14.4355 312.614 14.0688 314.651C13.9503 315.283 13.9503 315.932 14.0688 316.564C14.4581 318.482 14.3171 320.463 14.633 322.392C15.1101 325.784 15.9092 329.122 17.0197 332.362C17.0987 332.611 16.8505 332.955 16.7545 333.248ZM21.5449 327.826C21.509 328.979 21.1975 330.107 20.6365 331.115C20.5518 331.279 20.3036 331.493 20.1851 331.465C19.9703 331.387 19.7916 331.232 19.6829 331.031C19.5238 330.728 19.3952 330.411 19.2992 330.083C17.7905 325.622 17.067 320.933 17.1608 316.225C17.1608 315.097 17.1608 313.929 17.1608 312.073C16.8787 308.287 17.3075 303.835 17.9846 299.4C18.3681 296.448 19.2036 293.572 20.4616 290.874C20.5575 290.682 20.7775 290.553 20.9412 290.395C21.0729 290.535 21.1815 290.695 21.2628 290.869C22.0471 293.853 22.9555 296.782 23.2432 299.896C23.5761 303.547 24.1516 307.192 23.9147 310.843C23.5987 315.751 23.3504 320.705 21.8439 325.445C21.6272 326.219 21.5264 327.022 21.5449 327.826ZM31.7857 314.849C31.5826 317.106 31.5995 319.458 31.1199 321.681C30.3009 325.838 28.3971 329.704 25.6017 332.887C25.025 333.454 24.269 333.803 23.4633 333.875C23.074 333.948 22.7185 333.609 22.899 333.276C24.2419 330.692 24.524 327.82 25.1898 325.056C26.3501 320.637 26.992 316.098 27.1026 311.531C27.1991 306.499 26.7029 301.472 25.6243 296.556C25.3422 295.337 24.8005 294.181 24.4112 292.979C24.3548 292.804 24.4112 292.449 24.5297 292.381C24.6016 292.34 24.6817 292.315 24.7643 292.308C24.8468 292.302 24.9298 292.313 25.0074 292.343C25.0849 292.372 25.1551 292.417 25.213 292.477C25.2709 292.536 25.315 292.607 25.3422 292.685C25.8331 293.588 26.2844 294.508 26.764 295.416C28.9888 299.795 30.4794 304.509 31.1764 309.37C31.4528 311.17 31.9268 312.964 31.7857 314.849Z" fill="white"/>
<path d="M34.6296 454.214C33.5012 454.214 32.3727 454.276 31.2442 454.214C29.824 454.197 28.4188 454.506 27.1366 455.117C24.9361 456.104 23.7512 458.04 22.9951 460.195C22.4512 461.961 22.129 463.788 22.0359 465.634C21.8102 468.579 21.8272 471.57 21.1219 474.476C20.9413 475.215 20.3827 475.813 19.8467 475.728C19.5118 475.705 19.1959 475.564 18.9544 475.331C18.713 475.098 18.5614 474.787 18.5264 474.453C18.3797 472.49 17.8211 470.605 17.6744 468.619C17.4656 465.843 16.8958 463.01 15.4513 460.556C14.0611 458.182 11.9474 456.316 9.41967 455.23C8.16398 454.641 6.78076 454.378 5.39669 454.462C3.9861 454.462 2.50781 454.733 1.09159 454.491C0.851259 454.467 0.622576 454.376 0.432592 454.227C0.242608 454.078 0.0992728 453.878 0.0195428 453.65C-0.127158 453.232 0.583776 452.296 1.09159 452.222C2.78429 451.968 4.43185 451.754 6.09634 451.483C9.95569 450.851 12.9292 449.576 15.4626 446.676C16.5911 445.373 17.0143 443.702 17.539 442.123C18.1799 440.183 18.6297 438.186 18.8819 436.159C18.9224 435.697 19.0249 435.244 19.1866 434.81C19.2712 434.607 19.5984 434.46 19.8467 434.393C19.9483 434.393 20.1909 434.573 20.2586 434.725C20.4284 435.054 20.541 435.409 20.5915 435.775C20.8567 438.861 21.8949 441.784 22.5437 444.803C22.9064 446.072 23.5141 447.259 24.3324 448.295C25.5003 449.988 27.3002 450.552 29.1622 450.874C32.0229 451.413 34.9163 451.762 37.8232 451.918C38.2 451.912 38.5769 451.929 38.9517 451.968C39.5554 452.07 40.0801 452.646 39.9898 453.097C39.9525 453.383 39.8215 453.649 39.6175 453.853C39.4134 454.057 39.1476 454.188 38.8614 454.225C38.3957 454.262 37.9278 454.262 37.4621 454.225L34.6296 454.214Z" fill="white"/>
<path d="M32.9089 592.141C32.3684 590.653 31.9993 589.109 31.8086 587.537C31.5604 585.912 30.4714 584.716 29.9862 583.159C29.7202 582.26 29.3688 581.389 28.9367 580.557C27.1481 577.347 24.3438 574.836 21.3308 572.692C20.8278 572.283 20.1991 572.059 19.5507 572.059C18.9022 572.059 18.2736 572.283 17.7705 572.692C16.2809 573.99 14.6841 575.225 13.4654 576.754C11.3945 579.267 9.79636 582.135 8.74841 585.218C8.53096 586.08 8.20485 586.91 7.77793 587.689C6.57611 589.517 5.98931 591.639 5.43071 593.636C4.36996 597.49 4.43202 601.479 5.09782 605.429C5.50971 607.962 6.36734 610.377 7.04442 612.843C7.92198 615.995 9.70767 618.818 12.1789 620.962C13.323 622.043 14.6822 622.871 16.1678 623.391C17.6534 623.911 19.2319 624.112 20.8004 623.981C21.7756 623.921 22.7245 623.641 23.5765 623.163C26.8264 621.318 28.6884 618.322 30.3473 615.179C31.1705 613.703 31.7102 612.086 31.9384 610.411C31.9863 609.975 32.0887 609.546 32.2431 609.136C33.4449 605.976 33.428 602.625 33.4506 598.98C33.4507 598.744 33.4337 598.508 33.3998 598.274C33.1684 596.429 33.7609 594.263 32.9089 592.141ZM24.6429 579.395L24.6936 579.547H24.5469L24.6429 579.395ZM15.3387 618.677C15.2484 618.643 15.1242 618.643 15.0565 618.581C13.4033 617.063 11.5019 615.76 10.932 613.351C10.4975 611.54 9.54962 609.926 9.06438 608.092C7.93591 603.781 8.20674 599.51 8.70891 595.205C8.8779 593.938 9.19803 592.695 9.66247 591.504C10.7345 588.649 11.8517 585.805 13.0479 583.006C13.5959 581.959 14.2401 580.966 14.9719 580.038C15.0283 579.954 15.7505 579.181 15.4289 579.982C13.8322 583.497 13.0874 587.255 12.2241 590.984C11.7106 593.241 11.8517 595.498 11.8235 597.755C11.7783 600.892 11.6316 604.075 12.4554 607.172C12.9858 609.17 13.9789 613.684 15.2427 616.764C15.47 617.311 15.6456 617.878 15.7675 618.457C15.8183 618.683 15.5587 618.773 15.3387 618.677ZM20.8004 613.503C20.4249 614.417 19.9856 615.303 19.4858 616.155C19.2544 616.606 18.8143 616.663 18.6112 616.256C18.2614 615.551 17.9228 614.84 17.6294 614.112C15.4331 608.737 14.4394 602.946 14.718 597.146C14.5137 593.448 14.9119 589.742 15.8972 586.172C16.8226 582.961 17.9172 579.801 18.961 576.625C19.1134 576.162 19.5253 576.156 19.9089 576.388C20.2956 576.61 20.6289 576.913 20.8853 577.278C21.1417 577.643 21.3149 578.059 21.3929 578.498C22.1095 581.962 23.0179 585.348 23.3508 588.919C23.6114 592.11 23.6567 595.315 23.4862 598.511C23.3474 603.615 22.442 608.669 20.8004 613.503ZM29.7323 607.082C29.6364 607.592 29.4652 608.084 29.2244 608.543C28.3442 610.236 28.4119 612.301 27.4527 614.05C26.4935 615.799 25.1337 617.176 23.9319 618.694C23.755 618.972 23.5204 619.21 23.2439 619.39C22.9675 619.57 22.6557 619.688 22.3295 619.738C22.2317 619.741 22.1362 619.708 22.0619 619.644C21.9877 619.58 21.9402 619.491 21.9289 619.394C21.9216 618.427 22.1583 617.474 22.6173 616.623C23.6806 614.205 24.5467 611.705 25.2071 609.147C25.3357 608.659 25.4337 608.163 25.5005 607.663C25.8221 604.944 26.234 602.224 26.3807 599.493C26.5707 596.762 26.5802 594.021 26.4089 591.289C26.1832 588.333 25.2127 585.466 25.4215 582.47C25.4215 582.194 25.3482 581.844 25.7713 581.838C25.9124 581.838 26.0817 582.013 26.1889 582.149C27.1424 583.333 27.5092 584.784 27.9775 586.183C28.6941 588.327 29.6702 590.386 30.0144 592.655C30.6884 597.448 30.5932 602.319 29.7323 607.082Z" fill="white"/>
<path d="M21.1217 756.175C21.2802 757.431 21.3744 758.695 21.4039 759.961C21.3474 761.061 20.8396 761.704 20.1513 761.654C19.3275 761.603 18.9777 761.039 18.8027 760.328C18.6278 759.617 18.4698 758.99 18.357 758.313C18.0636 756.576 17.6799 754.855 17.4317 753.1C17.1434 751.478 16.5416 749.927 15.66 748.535C14.256 745.972 12.1932 743.829 9.68473 742.329C8.05692 741.397 6.14458 741.092 4.30758 741.471C3.34274 741.635 2.37226 741.759 1.39614 741.832C0.707772 741.883 0.329736 741.415 0.143539 740.805C-0.0426582 740.196 0.0758308 739.728 0.668276 739.677C3.20168 739.35 5.63917 738.605 8.11616 738.041C9.84847 737.674 11.4823 736.941 12.908 735.891C14.3337 734.841 15.5183 733.498 16.3822 731.952C17.8746 729.424 18.5871 726.511 18.4303 723.579C18.3796 722.631 18.2724 721.604 18.8817 720.73C18.9844 720.562 19.1361 720.43 19.3162 720.352C19.6491 720.25 19.7789 720.544 19.9086 720.786C20.3657 721.604 20.1625 722.513 20.2528 723.382C20.4898 725.706 20.7268 727.963 21.7537 730.192C23.5197 734.04 26.5102 736.224 30.2736 737.679C32.4967 738.537 34.8665 738.52 37.1685 738.904C37.8456 739.017 38.5396 739.034 39.2054 739.18C39.3971 739.229 39.5665 739.342 39.6855 739.5C39.8045 739.658 39.866 739.851 39.8599 740.049C39.8599 740.54 39.8599 741.054 39.2957 741.268C38.7315 741.482 37.9303 741.375 36.7341 741.341C33.4983 741.196 30.2674 741.721 27.2437 742.882C25.8062 743.389 24.5278 744.267 23.5373 745.426C22.5468 746.585 21.8791 747.984 21.6013 749.483C21.1654 751.685 21.0043 753.933 21.1217 756.175Z" fill="white"/>
<path d="M34.9059 885.616C34.2458 880.098 34.1047 874.438 30.9902 869.513C29.7658 864.999 26.7584 861.771 23.0909 859.074C21.1274 857.63 20.0158 857.613 18.2441 859.277C12.8726 864.356 9.17689 870.37 7.77759 877.7C7.37134 879.816 6.64912 881.909 6.55884 884.03C6.46292 886.598 6.26544 889.165 6.6999 891.789C7.32056 895.535 8.1387 899.124 9.97246 902.509C10.9335 904.344 12.2736 905.953 13.904 907.23C15.5343 908.508 17.4177 909.423 19.429 909.917C19.8558 910.06 20.3056 910.121 20.755 910.098C23.7792 909.703 26.5553 908.693 28.4793 906.199C29.1677 905.302 29.9576 904.45 30.5331 903.519C31.955 901.217 33.6364 899.067 34.0596 896.184C34.517 893.597 34.8035 890.983 34.9172 888.358C34.9673 887.444 34.9635 886.529 34.9059 885.616ZM16.7545 905.313C16.5391 905.251 16.3324 905.162 16.1395 905.048C13.8826 903.175 12.1899 900.952 11.5636 898.018C8.32489 891.664 9.65649 885.085 10.5875 878.518C10.9768 875.77 12.252 873.321 13.1152 870.731C13.5301 869.227 14.5 867.937 15.8292 867.12C15.4117 869.868 14.9434 872.616 14.6048 875.375C14.396 877.068 14.4976 878.811 14.2776 880.51C14.0067 882.575 14.4355 884.674 14.0688 886.716C13.9503 887.348 13.9503 887.997 14.0688 888.629C14.4581 890.547 14.3171 892.528 14.633 894.463C15.1082 897.868 15.9074 901.22 17.0197 904.473C17.0987 904.67 16.8505 905.037 16.7545 905.313ZM21.5449 899.857C21.5084 901.012 21.1969 902.142 20.6365 903.152C20.5518 903.31 20.3036 903.525 20.1851 903.496C19.9707 903.42 19.7919 903.267 19.6829 903.068C19.5238 902.765 19.3952 902.448 19.2992 902.12C17.7909 897.657 17.0674 892.966 17.1608 888.256C17.1608 887.128 17.1608 885.96 17.1608 884.109C16.8787 880.318 17.3075 875.871 17.9846 871.431C18.3681 868.479 19.2036 865.603 20.4616 862.905C20.5575 862.714 20.7775 862.584 20.9412 862.426C21.073 862.568 21.1816 862.73 21.2628 862.905C22.0471 865.885 22.9555 868.813 23.2432 871.933C23.5761 875.584 24.1516 879.229 23.9147 882.885C23.5987 887.794 23.3504 892.742 21.8439 897.487C21.6277 898.258 21.5269 899.057 21.5449 899.857ZM31.7857 886.88C31.5826 889.165 31.5995 891.49 31.1199 893.713C30.3009 897.869 28.3971 901.735 25.6017 904.918C25.024 905.485 24.2689 905.835 23.4633 905.911C23.074 905.979 22.7185 905.64 22.899 905.308C24.2419 902.723 24.524 899.851 25.1898 897.092C26.3472 892.683 26.9891 888.154 27.1026 883.596C27.1991 878.564 26.7029 873.537 25.6243 868.621C25.3422 867.397 24.8005 866.24 24.4112 865.044C24.3548 864.863 24.4112 864.514 24.5297 864.446C24.6013 864.405 24.681 864.38 24.7633 864.373C24.8455 864.366 24.9283 864.377 25.0058 864.405C25.0833 864.434 25.1536 864.479 25.2117 864.538C25.2698 864.596 25.3144 864.667 25.3422 864.745C25.8331 865.648 26.2844 866.573 26.764 867.476C28.9881 871.854 30.4786 876.568 31.1764 881.429C31.4528 883.229 31.9268 885.029 31.7857 886.885V886.88Z" fill="white"/>
<path d="M34.6296 1026.25C33.5012 1026.25 32.3727 1026.31 31.2442 1026.25C29.8238 1026.23 28.418 1026.54 27.1366 1027.15C24.9361 1028.14 23.7512 1030.07 22.9951 1032.23C22.4516 1034 22.1294 1035.83 22.0359 1037.67C21.8102 1040.62 21.8272 1043.61 21.1219 1046.51C20.9413 1047.26 20.3827 1047.85 19.8467 1047.77C19.5114 1047.74 19.1949 1047.6 18.9532 1047.37C18.7115 1047.14 18.5603 1046.82 18.5264 1046.49C18.3797 1044.53 17.8211 1042.64 17.6744 1040.66C17.4656 1037.89 16.8958 1035.05 15.4513 1032.59C14.0611 1030.22 11.9474 1028.35 9.41967 1027.27C8.16229 1026.68 6.7804 1026.42 5.39669 1026.5C3.9861 1026.5 2.50781 1026.77 1.09159 1026.53C0.855811 1026.51 0.630333 1026.43 0.440809 1026.29C0.251285 1026.14 0.105326 1025.95 0.0195428 1025.73C-0.127158 1025.32 0.583776 1024.38 1.09159 1024.31C2.78429 1024.05 4.43185 1023.84 6.09634 1023.57C9.95569 1022.93 12.9292 1021.66 15.4626 1018.76C16.5911 1017.45 17.0143 1015.78 17.539 1014.2C18.1762 1012.26 18.6203 1010.26 18.8649 1008.22C18.906 1007.76 19.0085 1007.31 19.1696 1006.87C19.2543 1006.67 19.5815 1006.52 19.8298 1006.45C19.9313 1006.45 20.174 1006.63 20.2417 1006.78C20.4123 1007.11 20.5249 1007.47 20.5746 1007.84C20.8398 1010.93 21.8779 1013.84 22.5268 1016.87C22.8896 1018.14 23.4972 1019.33 24.3154 1020.37C25.4834 1022.06 27.2833 1022.62 29.1453 1022.94C32.0111 1023.48 34.9104 1023.83 37.8232 1023.98C38.2001 1023.97 38.5771 1023.99 38.9517 1024.03C39.5554 1024.13 40.0801 1024.71 39.9898 1025.16C39.9477 1025.44 39.8145 1025.7 39.6108 1025.9C39.407 1026.1 39.1438 1026.23 38.8614 1026.26C38.3957 1026.3 37.9278 1026.3 37.4621 1026.26L34.6296 1026.25Z" fill="white"/>
</svg>
