<svg width="24" height="24" viewBox="0 0 24 24" fill="none" xmlns="http://www.w3.org/2000/svg">
<path d="M9 22C9.55228 22 10 21.5523 10 21C10 20.4477 9.55228 20 9 20C8.44772 20 8 20.4477 8 21C8 21.5523 8.44772 22 9 22Z" stroke="#1A1E1E" stroke-width="2" stroke-linecap="round" stroke-linejoin="round"/>
<path d="M20 22C20.5523 22 21 21.5523 21 21C21 20.4477 20.5523 20 20 20C19.4477 20 19 20.4477 19 21C19 21.5523 19.4477 22 20 22Z" stroke="#1A1E1E" stroke-width="2" stroke-linecap="round" stroke-linejoin="round"/>
<path d="M1 1H5L7.68 14.39C7.77144 14.8504 8.02191 15.264 8.38755 15.5583C8.75318 15.8526 9.2107 16.009 9.68 16H19.4C19.8693 16.009 20.3268 15.8526 20.6925 15.5583C21.0581 15.264 21.3086 14.8504 21.4 14.39L23 6H6" stroke="#1A1E1E" stroke-width="2" stroke-linecap="round" stroke-linejoin="round"/>
<path d="M7.68 14.39L6 6H23L21.4 14.39C21.3086 14.8504 21.0581 15.264 20.6925 15.5583C20.3268 15.8526 19.8693 16.009 19.4 16H9.68C9.2107 16.009 8.75318 15.8526 8.38755 15.5583C8.02191 15.264 7.77144 14.8504 7.68 14.39Z" fill="#1A1E1E" stroke="#1A1E1E" stroke-width="2" stroke-linecap="round" stroke-linejoin="round"/>
<path d="M12 11.5625C12 11.5625 12.9375 12.8125 14.5 12.8125C16.0625 12.8125 17 11.5625 17 11.5625" stroke="#F7ED71" stroke-width="1.25" stroke-linecap="round" stroke-linejoin="round"/>
<path d="M12.625 8.4375H12.6313" stroke="#F7ED71" stroke-width="1.5" stroke-linecap="round" stroke-linejoin="round"/>
<path d="M16.375 8.4375H16.3813" stroke="#F7ED71" stroke-width="1.5" stroke-linecap="round" stroke-linejoin="round"/>
</svg>
