<svg width="24" height="24" viewBox="0 0 24 24" fill="none" xmlns="http://www.w3.org/2000/svg">
<path d="M12 1C5.92782 1 1 5.92782 1 12C1 18.0722 5.92782 23 12 23C18.0722 23 23 18.0722 23 12C23 5.92782 18.0722 1 12 1Z" stroke="#F7ED71" stroke-width="2"/>
<path d="M19.0346 10.8956C18.8039 10.8956 18.662 10.838 18.4624 10.7226C15.3043 8.83755 9.65795 8.38513 6.00311 9.40529C5.84343 9.44964 5.64383 9.52061 5.43093 9.52061C4.84544 9.52061 4.39746 9.06376 4.39746 8.47384C4.39746 7.87061 4.77004 7.52908 5.16924 7.41376C6.73053 6.9569 8.47811 6.73956 10.3809 6.73956C13.6188 6.73956 17.012 7.41376 19.4914 8.85972C19.8374 9.05932 20.0636 9.33432 20.0636 9.86214C20.0636 10.4654 19.5757 10.8956 19.0346 10.8956ZM17.6596 14.2754C17.4289 14.2754 17.2737 14.1734 17.114 14.0892C14.3418 12.448 10.2079 11.7871 6.53093 12.7851C6.31803 12.8428 6.2027 12.9004 6.00311 12.9004C5.52851 12.9004 5.14262 12.5146 5.14262 12.04C5.14262 11.5654 5.37327 11.2505 5.83012 11.1218C7.06319 10.7759 8.32286 10.5186 10.168 10.5186C13.0467 10.5186 15.8277 11.2327 18.0188 12.5367C18.3781 12.7496 18.52 13.0246 18.52 13.4105C18.5156 13.8896 18.143 14.2754 17.6596 14.2754ZM16.4664 17.1851C16.2801 17.1851 16.1648 17.1275 15.9918 17.0254C13.2241 15.3577 10.0039 15.2867 6.82367 15.9388C6.65069 15.9831 6.42448 16.0541 6.29585 16.0541C5.86561 16.0541 5.59504 15.7125 5.59504 15.3533C5.59504 14.8964 5.86561 14.6791 6.19827 14.6081C9.83093 13.8053 13.5434 13.8763 16.7104 15.7702C16.9809 15.9432 17.1406 16.0984 17.1406 16.5021C17.1406 16.9057 16.8257 17.1851 16.4664 17.1851Z" fill="#F7ED71"/>
</svg>
